<svg width="26" height="26" viewBox="0 0 26 26" fill="none" xmlns="http://www.w3.org/2000/svg">
<g clip-path="url(#clip0_4116_66)">
<path d="M4.20271 15.0507H6.25671C6.54162 15.0507 6.77264 14.8199 6.77264 14.535V12.4808C6.77264 12.1961 6.54162 11.9651 6.25671 11.9651H4.20271C3.91779 11.9651 3.68677 12.1958 3.68677 12.4808V14.535C3.68677 14.8199 3.91779 15.0507 4.20271 15.0507Z" fill="#3A2D28"/>
<path d="M4.20271 19.2975H6.25671C6.54162 19.2975 6.77264 19.0668 6.77264 18.7819V16.7276C6.77264 16.4429 6.54162 16.2119 6.25671 16.2119H4.20271C3.91779 16.2119 3.68677 16.4427 3.68677 16.7276V18.7819C3.68677 19.0668 3.91779 19.2975 4.20271 19.2975Z" fill="#3A2D28"/>
<path d="M4.20271 23.5441H6.25671C6.54162 23.5441 6.77264 23.3134 6.77264 23.0284V20.9742C6.77264 20.6895 6.54162 20.4585 6.25671 20.4585H4.20271C3.91779 20.4585 3.68677 20.6892 3.68677 20.9742V23.0284C3.68677 23.3134 3.91779 23.5441 4.20271 23.5441Z" fill="#3A2D28"/>
<path d="M9.38264 15.0507H11.4366C11.7216 15.0507 11.9523 14.8199 11.9523 14.535V12.4808C11.9523 12.1961 11.7216 11.9651 11.4366 11.9651H9.38264C9.09772 11.9651 8.8667 12.1958 8.8667 12.4808V14.535C8.8667 14.8199 9.09772 15.0507 9.38264 15.0507Z" fill="#3A2D28"/>
<path d="M9.38264 19.2975H11.4366C11.7216 19.2975 11.9523 19.0668 11.9523 18.7819V16.7276C11.9523 16.4429 11.7216 16.2119 11.4366 16.2119H9.38264C9.09772 16.2119 8.8667 16.4427 8.8667 16.7276V18.7819C8.8667 19.0668 9.09772 19.2975 9.38264 19.2975Z" fill="#3A2D28"/>
<path d="M9.38264 23.5441H11.4366C11.7216 23.5441 11.9523 23.3134 11.9523 23.0284V20.9742C11.9523 20.6895 11.7216 20.4585 11.4366 20.4585H9.38264C9.09772 20.4585 8.8667 20.6892 8.8667 20.9742V23.0284C8.8667 23.3134 9.09772 23.5441 9.38264 23.5441Z" fill="#3A2D28"/>
<path d="M14.5628 15.0507H16.6168C16.9017 15.0507 17.1327 14.8199 17.1327 14.535V12.4808C17.1327 12.1961 16.9017 11.9651 16.6168 11.9651H14.5628C14.2779 11.9651 14.0471 12.1958 14.0471 12.4808V14.535C14.0468 14.8199 14.2779 15.0507 14.5628 15.0507Z" fill="#3A2D28"/>
<path d="M16.6168 20.4585H14.5628C14.2779 20.4585 14.0471 20.6892 14.0471 20.9742V23.0284C14.0471 23.3131 14.2779 23.5441 14.5628 23.5441H16.6168C16.9017 23.5441 17.1327 23.3134 17.1327 23.0284V20.9742C17.1325 20.6892 16.9017 20.4585 16.6168 20.4585Z" fill="#3A2D28"/>
<path d="M19.7425 15.0507H21.7967C22.0814 15.0507 22.3124 14.8199 22.3124 14.535V12.4808C22.3124 12.1961 22.0817 11.9651 21.7967 11.9651H19.7425C19.4578 11.9651 19.2268 12.1958 19.2268 12.4808V14.535C19.2268 14.8199 19.4578 15.0507 19.7425 15.0507Z" fill="#3A2D28"/>
<path d="M19.7425 19.2975H21.7967C22.0814 19.2975 22.3124 19.0668 22.3124 18.7819V16.7276C22.3124 16.4429 22.0817 16.2119 21.7967 16.2119H19.7425C19.4578 16.2119 19.2268 16.4427 19.2268 16.7276V18.7819C19.2268 19.0668 19.4578 19.2975 19.7425 19.2975Z" fill="#3A2D28"/>
<mask id="mask0_4116_66" style="mask-type:luminance" maskUnits="userSpaceOnUse" x="0" y="0" width="26" height="26">
<path d="M0.0844727 0H25.9285V26H0.0844727V0Z" fill="white"/>
</mask>
<g mask="url(#mask0_4116_66)">
<path d="M19.8561 0.00146484C19.3721 0.00146484 18.98 0.393902 18.98 0.877611V2.63803H7.06439V0.877611C7.06439 0.393902 6.67222 0.00146484 6.18851 0.00146484C5.70481 0.00146484 5.31237 0.393902 5.31237 0.877611V2.63803H2.55149C1.1911 2.63803 0.0844727 3.74465 0.0844727 5.10478V23.5312C0.0844727 24.8916 1.1911 25.9979 2.55149 25.9979H23.4479C24.808 25.9979 25.9147 24.8916 25.9147 23.5312V5.10478C25.9147 3.74465 24.808 2.63803 23.4479 2.63803H20.732V0.877611C20.732 0.393902 20.3398 0.00146484 19.8561 0.00146484ZM5.31237 3.89469V4.98236C5.31237 5.46607 5.70481 5.85824 6.18851 5.85824C6.67222 5.85824 7.06439 5.46607 7.06439 4.98236V3.89469C7.38208 4.15063 7.5852 4.5428 7.5852 4.98236C7.5852 5.75369 6.95985 6.37905 6.18851 6.37905C5.41718 6.37905 4.79183 5.75369 4.79183 4.98236C4.79183 4.5428 4.99495 4.15063 5.31237 3.89469ZM24.6994 23.5312C24.6994 24.2213 24.138 24.7827 23.4479 24.7827H2.55149C1.86141 24.7827 1.29997 24.2213 1.29997 23.5312V10.7262H24.6994V23.5312ZM21.2525 4.98236C21.2525 5.75369 20.6272 6.37905 19.8558 6.37905C19.0845 6.37905 18.4592 5.75369 18.4592 4.98236C18.4592 4.5428 18.6623 4.15063 18.98 3.89469V4.98236C18.98 5.46607 19.3721 5.85824 19.8558 5.85824C20.3396 5.85824 20.732 5.46607 20.732 4.98236V3.89469C21.0494 4.15063 21.2525 4.5428 21.2525 4.98236Z" fill="#3A2D28"/>
</g>
<path d="M15.4273 19.5696L17.8751 17.122C18.1124 16.8845 18.1124 16.4999 17.8751 16.2624C17.6376 16.0252 17.253 16.0252 17.0155 16.2624L15.4273 17.8508L14.7895 17.213C14.552 16.9758 14.1674 16.9755 13.9299 17.213C13.6926 17.4503 13.6926 17.8351 13.9299 18.0724L15.4273 19.5696Z" fill="#3A2D28"/>
</g>
<defs>
<clipPath id="clip0_4116_66">
<rect width="26" height="26" fill="white"/>
</clipPath>
</defs>
</svg>
