<svg width="15" height="15" viewBox="0 0 15 15" fill="none" xmlns="http://www.w3.org/2000/svg">
<g clip-path="url(#clip0_4014_1838)">
<path d="M14.3374 7.6C14.3374 7.71162 14.3344 7.82324 14.3288 7.93485C14.3228 8.04647 14.3142 8.15773 14.303 8.26899C14.2914 8.38026 14.2769 8.49081 14.2597 8.60136C14.2425 8.71191 14.2224 8.8221 14.1996 8.93159C14.1768 9.04107 14.151 9.14985 14.1227 9.25826C14.0939 9.36668 14.0626 9.47439 14.0286 9.58103C13.9946 9.68802 13.9576 9.79395 13.9184 9.89917C13.8789 10.0044 13.8367 10.1085 13.7915 10.212C13.7467 10.3151 13.6993 10.4171 13.6492 10.518C13.5988 10.619 13.5462 10.7189 13.4909 10.8173C13.4357 10.9158 13.3778 11.0129 13.3173 11.1088C13.2572 11.2045 13.1945 11.299 13.1291 11.3918C13.0642 11.4846 12.9966 11.5759 12.9268 11.6655C12.8566 11.7554 12.7845 11.8432 12.7102 11.9296C12.6355 12.016 12.559 12.1006 12.4802 12.1834C12.4014 12.2662 12.3208 12.3469 12.2375 12.4258C12.1546 12.5051 12.0699 12.5819 11.9829 12.6569C11.8959 12.7319 11.807 12.8048 11.7163 12.8759C11.6256 12.9466 11.5334 13.0152 11.4389 13.082C11.3448 13.1485 11.2488 13.2129 11.1514 13.2747C11.0539 13.3369 10.9546 13.3966 10.8542 13.4539C10.7534 13.5114 10.6515 13.5665 10.548 13.6192C10.4446 13.6718 10.3397 13.7219 10.2337 13.7699C10.1276 13.8175 10.0205 13.8626 9.91219 13.9053C9.80354 13.9483 9.69414 13.9885 9.58362 14.0262C9.47311 14.0638 9.36184 14.0987 9.24946 14.131C9.13745 14.1634 9.02432 14.1932 8.91044 14.2206C8.79656 14.2476 8.68231 14.2722 8.56731 14.2938C8.45232 14.3155 8.33657 14.3347 8.22045 14.3511C8.10434 14.3674 7.98822 14.3813 7.87135 14.3923C7.75449 14.403 7.63763 14.4111 7.52039 14.4168C7.40315 14.4222 7.28591 14.425 7.16868 14.425C7.05144 14.425 6.9342 14.4222 6.81696 14.4168C6.69972 14.4111 6.58286 14.403 6.466 14.3923C6.34913 14.3813 6.23301 14.3674 6.1169 14.3511C6.00078 14.3347 5.88503 14.3155 5.77004 14.2938C5.65504 14.2722 5.54079 14.2476 5.42691 14.2206C5.31303 14.1932 5.1999 14.1634 5.08789 14.131C4.97551 14.0987 4.86424 14.0638 4.75373 14.0262C4.64321 13.9885 4.53381 13.9483 4.42516 13.9053C4.31689 13.8626 4.20973 13.8175 4.10369 13.7699C3.99766 13.7219 3.89274 13.6718 3.78932 13.6192C3.68589 13.5665 3.58396 13.5114 3.48315 13.4539C3.38272 13.3966 3.2834 13.3369 3.18595 13.2747C3.0885 13.2129 2.99255 13.1485 2.89846 13.082C2.804 13.0152 2.71178 12.9466 2.62105 12.8759C2.53032 12.8048 2.44146 12.7319 2.35446 12.6569C2.26747 12.5819 2.18271 12.5051 2.09982 12.4258C2.01656 12.3469 1.93592 12.2662 1.85713 12.1834C1.77835 12.1006 1.70181 12.016 1.62714 11.9296C1.55284 11.8432 1.48078 11.7554 1.41059 11.6655C1.34077 11.5759 1.27319 11.4846 1.20822 11.3918C1.14288 11.299 1.08016 11.2045 1.02004 11.1088C0.959557 11.0129 0.901685 10.9158 0.846426 10.8173C0.791168 10.7189 0.738523 10.619 0.688118 10.518C0.638087 10.4171 0.590669 10.3151 0.545865 10.212C0.500687 10.1085 0.458497 10.0044 0.418919 9.89917C0.379342 9.79395 0.342752 9.68802 0.308776 9.58103C0.274799 9.47439 0.243436 9.36668 0.214687 9.25826C0.186311 9.14985 0.160549 9.04107 0.137773 8.93159C0.114997 8.8221 0.0948356 8.71191 0.0776607 8.60136C0.0604856 8.49081 0.0459244 8.38026 0.0343499 8.26899C0.0231489 8.15773 0.0145614 8.04647 0.00858748 7.93485C0.00298695 7.82324 0 7.71162 0 7.6C0 7.48838 0.00298695 7.37677 0.00858748 7.26515C0.0145614 7.15353 0.0231489 7.04227 0.0343499 6.93101C0.0459244 6.81975 0.0604856 6.7092 0.0776607 6.59865C0.0948356 6.4881 0.114997 6.3779 0.137773 6.26842C0.160549 6.15893 0.186311 6.05016 0.214687 5.94174C0.243436 5.83332 0.274799 5.72561 0.308776 5.61897C0.342752 5.51198 0.379342 5.40605 0.418919 5.30083C0.458497 5.19561 0.500687 5.09146 0.545865 4.98802C0.590669 4.88493 0.638087 4.78291 0.688118 4.68196C0.738523 4.58101 0.791168 4.48112 0.846426 4.38265C0.901685 4.28419 0.959557 4.18715 1.02004 4.09117C1.08016 3.99555 1.14288 3.90099 1.20822 3.80822C1.27319 3.71544 1.34077 3.62408 1.41059 3.53451C1.48078 3.44457 1.55284 3.35677 1.62714 3.27039C1.70181 3.18401 1.77835 3.09941 1.85713 3.01659C1.93592 2.93376 2.01656 2.85307 2.09982 2.77416C2.18271 2.69489 2.26747 2.61811 2.35446 2.5431C2.44146 2.4681 2.53032 2.39523 2.62105 2.32413C2.71178 2.2534 2.804 2.18479 2.89846 2.11796C2.99255 2.05149 3.0885 1.98715 3.18595 1.9253C3.2834 1.86309 3.38272 1.80337 3.48315 1.74614C3.58396 1.68856 3.68589 1.63346 3.78932 1.58085C3.89274 1.52824 3.99766 1.47812 4.10369 1.43013C4.20973 1.3825 4.31689 1.33735 4.42516 1.2947C4.53381 1.25169 4.64321 1.21152 4.75373 1.17384C4.86424 1.13616 4.97551 1.10132 5.08789 1.06897C5.1999 1.03663 5.31303 1.00677 5.42691 0.979396C5.54079 0.95238 5.65504 0.927853 5.77004 0.906169C5.88503 0.884486 6.00078 0.865291 6.1169 0.848939C6.23301 0.832587 6.34913 0.818724 6.466 0.807705C6.58286 0.797041 6.69972 0.788865 6.81696 0.783177C6.9342 0.777845 7.05144 0.775002 7.16868 0.775002C7.28591 0.775002 7.40315 0.777845 7.52039 0.783177C7.63763 0.788865 7.75449 0.797041 7.87135 0.807705C7.98822 0.818724 8.10434 0.832587 8.22045 0.848939C8.33657 0.865291 8.45232 0.884486 8.56731 0.906169C8.68231 0.927853 8.79656 0.95238 8.91044 0.979396C9.02432 1.00677 9.13745 1.03663 9.24946 1.06897C9.36184 1.10132 9.47311 1.13616 9.58362 1.17384C9.69414 1.21152 9.80354 1.25169 9.91219 1.2947C10.0205 1.33735 10.1276 1.3825 10.2337 1.43013C10.3397 1.47812 10.4446 1.52824 10.548 1.58085C10.6515 1.63346 10.7534 1.68856 10.8542 1.74614C10.9546 1.80337 11.0539 1.86309 11.1514 1.9253C11.2488 1.98715 11.3448 2.05149 11.4389 2.11796C11.5334 2.18479 11.6256 2.2534 11.7163 2.32413C11.807 2.39523 11.8959 2.4681 11.9829 2.5431C12.0699 2.61811 12.1546 2.69489 12.2375 2.77416C12.3208 2.85307 12.4014 2.93376 12.4802 3.01659C12.559 3.09941 12.6355 3.18401 12.7102 3.27039C12.7845 3.35677 12.8566 3.44457 12.9268 3.53451C12.9966 3.62408 13.0642 3.71544 13.1291 3.80822C13.1945 3.90099 13.2572 3.99555 13.3173 4.09117C13.3778 4.18715 13.4357 4.28419 13.4909 4.38265C13.5462 4.48112 13.5988 4.58101 13.6492 4.68196C13.6993 4.78291 13.7467 4.88493 13.7915 4.98802C13.8367 5.09146 13.8789 5.19561 13.9184 5.30083C13.9576 5.40605 13.9946 5.51198 14.0286 5.61897C14.0626 5.72561 14.0939 5.83332 14.1227 5.94174C14.151 6.05016 14.1768 6.15893 14.1996 6.26842C14.2224 6.3779 14.2425 6.4881 14.2597 6.59865C14.2769 6.7092 14.2914 6.81975 14.303 6.93101C14.3142 7.04227 14.3228 7.15353 14.3288 7.26515C14.3344 7.37677 14.3374 7.48838 14.3374 7.6Z" fill="#3A2D28"/>
<path d="M7.31504 8.25513L3.26884 5.30403C3.26623 5.32038 3.26025 5.33425 3.26025 5.3506V10.5458C3.26025 10.7448 3.42939 10.9059 3.63885 10.9059H10.9908C11.2003 10.9059 11.3694 10.7448 11.3694 10.5458V5.3506C11.3694 5.33425 11.3609 5.32038 11.3609 5.30403L7.31504 8.25513Z" fill="#A48374"/>
<path d="M10.9509 4.99015H3.67877L7.31501 7.64088L10.9509 4.99015Z" fill="#A48374"/>
</g>
<defs>
<clipPath id="clip0_4014_1838">
<rect width="14.3374" height="13.65" fill="white" transform="translate(0 0.775002)"/>
</clipPath>
</defs>
</svg>
