<svg width="26" height="26" viewBox="0 0 26 26" fill="none" xmlns="http://www.w3.org/2000/svg">
<g clip-path="url(#clip0_4014_308)">
<path d="M26 13C26 5.82021 20.1798 0 13 0C5.82021 0 0 5.82021 0 13C0 19.4885 4.7538 24.8666 10.9688 25.8422V16.7578H7.66797V13H10.9688V10.1359C10.9688 6.87781 12.9093 5.07813 15.879 5.07813C17.3015 5.07813 18.7891 5.33203 18.7891 5.33203V8.53125H17.1498C15.535 8.53125 15.0312 9.53333 15.0312 10.5611V13H18.6367L18.0605 16.7578H15.0312V25.8422C21.2462 24.8666 26 19.4885 26 13Z" fill="#3A2D28"/>
<path d="M18.0605 16.7578L18.6367 13H15.0313V10.5611C15.0313 9.53333 15.535 8.53125 17.1498 8.53125H18.7891V5.33203C18.7891 5.33203 17.3015 5.07812 15.879 5.07812C12.9093 5.07812 10.9688 6.87781 10.9688 10.1359V13H7.66797V16.7578H10.9688V25.8422C11.6309 25.9458 12.3087 26 13 26C13.6913 26 14.3691 25.9458 15.0313 25.8422V16.7578H18.0605Z" fill="#A48374" fill-opacity="0.156863"/>
</g>
<defs>
<clipPath id="clip0_4014_308">
<rect width="26" height="26" fill="white"/>
</clipPath>
</defs>
</svg>
