<svg width="27" height="26" viewBox="0 0 27 26" fill="none" xmlns="http://www.w3.org/2000/svg">
<g clip-path="url(#clip0_4010_682)">
<path d="M27 13C27 5.82021 20.9559 0 13.5 0C6.04406 0 0 5.82021 0 13C0 19.4885 4.93664 24.8666 11.3906 25.8422V16.7578H7.96289V13H11.3906V10.1359C11.3906 6.87781 13.4058 5.07813 16.4897 5.07813C17.967 5.07813 19.5117 5.33203 19.5117 5.33203V8.53125H17.8095C16.1325 8.53125 15.6094 9.53333 15.6094 10.5611V13H19.3535L18.7552 16.7578H15.6094V25.8422C22.0634 24.8666 27 19.4885 27 13Z" fill="#3A2D28"/>
<path d="M18.7552 16.7578L19.3535 13H15.6094V10.5611C15.6094 9.53333 16.1325 8.53125 17.8095 8.53125H19.5117V5.33203C19.5117 5.33203 17.967 5.07812 16.4897 5.07812C13.4058 5.07812 11.3906 6.87781 11.3906 10.1359V13H7.96289V16.7578H11.3906V25.8422C12.0783 25.9458 12.7821 26 13.5 26C14.2179 26 14.9217 25.9458 15.6094 25.8422V16.7578H18.7552Z" fill="#EBE3DB"/>
</g>
<defs>
<clipPath id="clip0_4010_682">
<rect width="27" height="26" fill="white"/>
</clipPath>
</defs>
</svg>
