<svg width="26" height="26" viewBox="0 0 26 26" fill="none" xmlns="http://www.w3.org/2000/svg">
<g clip-path="url(#clip0_4010_773)">
<path d="M7.6157 0.0906017C6.23241 0.156279 5.28788 0.377008 4.46252 0.701331C3.60736 1.03446 2.88356 1.48133 2.16247 2.20446C1.44205 2.92826 0.997883 3.65274 0.667466 4.50857C0.347206 5.33664 0.130539 6.28185 0.0696014 7.66581C0.0079868 9.04977 -0.00555487 9.49461 0.00121596 13.0249C0.0079868 16.5552 0.0235598 16.9974 0.0905911 18.3847C0.156945 19.7673 0.376997 20.7119 0.70132 21.5379C1.03512 22.3924 1.48132 23.1162 2.20512 23.8373C2.92825 24.5584 3.65273 25.0012 4.51059 25.3323C5.33799 25.6519 6.2832 25.8699 7.66715 25.9301C9.05044 25.9911 9.49596 26.0053 13.0256 25.9985C16.5546 25.9917 16.9987 25.9762 18.3854 25.9105C19.7721 25.8441 20.7112 25.6227 21.5379 25.2998C22.3924 24.9653 23.1168 24.5198 23.8373 23.796C24.5577 23.0722 25.0012 22.347 25.3323 21.4905C25.6525 20.6638 25.8699 19.7179 25.9301 18.3353C25.9904 16.9479 26.0046 16.5045 25.9978 12.9748C25.9911 9.44518 25.9755 9.00237 25.9098 7.61638C25.8441 6.22972 25.6234 5.28857 25.2998 4.46185C24.9653 3.60737 24.5198 2.88357 23.796 2.16248C23.0728 1.44071 22.347 0.997216 21.4905 0.667476C20.6631 0.347893 19.7186 0.129872 18.3346 0.069612C16.9506 0.0100287 16.5051 -0.00554425 12.9748 0.00122658C9.4445 0.00799742 9.00236 0.0235704 7.6157 0.0906017ZM7.76736 23.5915C6.49986 23.5366 5.81195 23.3261 5.35356 23.15C4.74622 22.9158 4.31356 22.6327 3.85585 22.1804C3.39882 21.7275 3.11851 21.2935 2.88085 20.6875C2.70278 20.2284 2.48882 19.5412 2.42924 18.2737C2.36491 16.9039 2.35137 16.4923 2.34392 13.0215C2.33648 9.55081 2.34934 9.1405 2.4096 7.7694C2.46377 6.50326 2.6757 5.81399 2.85174 5.3556C3.08533 4.74758 3.36767 4.3156 3.82132 3.85925C4.27497 3.40222 4.70762 3.12123 5.31429 2.88357C5.77268 2.70482 6.45991 2.49222 7.72674 2.43196C9.09783 2.36696 9.50882 2.35409 12.9789 2.34664C16.4489 2.33852 16.8606 2.35206 18.2324 2.41232C19.4985 2.46716 20.1878 2.67706 20.6462 2.85446C21.2535 3.08805 21.6862 3.36904 22.1425 3.82336C22.5996 4.27836 22.8812 4.70966 23.1182 5.31769C23.2976 5.77404 23.5102 6.46128 23.5698 7.72946C23.6355 9.09987 23.6497 9.51086 23.6565 12.9809C23.6626 16.451 23.6504 16.8633 23.5901 18.233C23.5346 19.5005 23.3247 20.1891 23.148 20.6482C22.9144 21.2555 22.632 21.6882 22.1784 22.1446C21.7241 22.6016 21.2921 22.8826 20.6848 23.1196C20.2271 23.2983 19.5391 23.5116 18.273 23.5719C16.9019 23.6362 16.4916 23.6497 13.0202 23.6578C9.54809 23.6653 9.13913 23.6511 7.76804 23.5915M18.3657 6.05164C18.3657 6.15456 18.3759 6.25545 18.3962 6.35633C18.4159 6.45654 18.4456 6.55404 18.4849 6.64883C18.5249 6.74362 18.5729 6.833 18.6298 6.91831C18.6867 7.00295 18.7517 7.08216 18.8241 7.15461C18.8966 7.22638 18.9758 7.29138 19.0611 7.34758C19.1464 7.40446 19.2365 7.45253 19.3313 7.4918C19.4261 7.53039 19.5236 7.56018 19.6238 7.57982C19.7247 7.59946 19.8255 7.60961 19.9285 7.60961C20.0307 7.60893 20.1323 7.59878 20.2325 7.57847C20.3327 7.55883 20.4302 7.52904 20.525 7.48977C20.6198 7.44982 20.7091 7.40175 20.7944 7.34487C20.8798 7.288 20.9583 7.223 21.0307 7.15055C21.1032 7.0781 21.1675 6.99888 21.2244 6.91357C21.2806 6.82826 21.3287 6.73821 21.3679 6.64341C21.4072 6.54862 21.4363 6.45112 21.456 6.35091C21.4756 6.25003 21.4857 6.14847 21.4857 6.04623C21.4851 5.94399 21.4749 5.84242 21.4546 5.74222C21.435 5.64133 21.4052 5.54383 21.3659 5.44972C21.326 5.35492 21.2779 5.26487 21.221 5.18024C21.1641 5.09492 21.0991 5.01638 21.0267 4.94393C20.9536 4.87149 20.875 4.80716 20.7897 4.75029C20.7044 4.69409 20.6143 4.64602 20.5196 4.60675C20.4248 4.56815 20.3273 4.53836 20.2271 4.51873C20.1262 4.49909 20.0246 4.48893 19.9224 4.48961C19.8201 4.48961 19.7186 4.49977 19.6184 4.52008C19.5175 4.53972 19.42 4.56951 19.3259 4.60946C19.2311 4.64873 19.1417 4.6968 19.0564 4.75367C18.9711 4.81055 18.8925 4.87555 18.8201 4.948C18.7483 5.02045 18.6833 5.09966 18.6271 5.18498C18.5702 5.27029 18.5222 5.36034 18.4829 5.45513C18.4443 5.54925 18.4145 5.64742 18.3949 5.74763C18.3752 5.84784 18.3651 5.9494 18.3657 6.05164ZM6.32517 13.0127C6.33195 16.6995 9.32601 19.6813 13.012 19.6746C16.6981 19.6678 19.6827 16.6737 19.6752 12.987C19.6685 9.30029 16.6737 6.31706 12.987 6.32451C9.30028 6.33196 6.31773 9.3267 6.32517 13.0127ZM8.66653 13.008C8.66585 12.8665 8.67262 12.725 8.68616 12.5835C8.70038 12.442 8.7207 12.3018 8.74778 12.1623C8.77554 12.0235 8.80939 11.8861 8.8507 11.75C8.89132 11.6139 8.93872 11.4805 8.99288 11.3491C9.04705 11.2178 9.10731 11.0898 9.17434 10.9646C9.2407 10.8393 9.31314 10.7174 9.39169 10.5989C9.4709 10.4811 9.55486 10.3674 9.64491 10.257C9.73429 10.1473 9.82976 10.0424 9.92929 9.94149C10.0295 9.84128 10.1344 9.74581 10.2441 9.65508C10.3538 9.56503 10.4676 9.48039 10.5854 9.40117C10.7032 9.32196 10.8244 9.24883 10.9497 9.1818C11.0742 9.11477 11.2029 9.05383 11.3336 8.99966C11.4649 8.94482 11.5983 8.89675 11.7337 8.85544C11.8691 8.81414 12.0066 8.77893 12.1461 8.75117C12.2849 8.72341 12.425 8.70242 12.5665 8.68821C12.708 8.67399 12.8495 8.66654 12.9911 8.66654C13.1332 8.66586 13.2748 8.67263 13.4163 8.68617C13.5571 8.69972 13.6973 8.72071 13.8367 8.74779C13.9762 8.77555 14.1137 8.8094 14.2498 8.85003C14.3852 8.89133 14.5192 8.93873 14.6499 8.99289C14.7813 9.04706 14.9099 9.10732 15.0352 9.17367C15.1604 9.24071 15.2823 9.31315 15.4001 9.3917C15.5186 9.47024 15.6324 9.55487 15.7421 9.64425C15.8524 9.7343 15.9574 9.82909 16.0582 9.9293C16.1585 10.0295 16.2539 10.1345 16.344 10.2441C16.4347 10.3532 16.5193 10.4669 16.5979 10.5847C16.6771 10.7025 16.7502 10.8244 16.8173 10.949C16.885 11.0742 16.9452 11.2022 17.0001 11.3336C17.0549 11.4642 17.103 11.5976 17.1443 11.7337C17.1856 11.8691 17.2201 12.0066 17.2486 12.1461C17.2763 12.2849 17.2973 12.425 17.3115 12.5665C17.3257 12.7074 17.3332 12.8489 17.3332 12.9911C17.3339 13.1333 17.3271 13.2748 17.3136 13.4156C17.2993 13.5571 17.279 13.6973 17.2519 13.8367C17.2242 13.9755 17.1903 14.1137 17.149 14.2491C17.1084 14.3852 17.061 14.5186 17.0068 14.6499C16.9527 14.7813 16.8924 14.9092 16.8254 15.0345C16.759 15.1598 16.6866 15.2816 16.608 15.4001C16.5288 15.5179 16.4449 15.6324 16.3548 15.7421C16.2654 15.8517 16.17 15.9574 16.0704 16.0576C15.9702 16.1585 15.8653 16.2539 15.7556 16.344C15.6459 16.434 15.5322 16.5187 15.4143 16.5979C15.2965 16.6771 15.1753 16.7502 15.0501 16.8173C14.9255 16.8843 14.7968 16.9452 14.6662 17.0001C14.5348 17.0542 14.4014 17.1023 14.266 17.1436C14.1306 17.1856 13.9931 17.2201 13.8537 17.2479C13.7149 17.2763 13.574 17.2973 13.4332 17.3115C13.2917 17.3258 13.1502 17.3325 13.0087 17.3332C12.8665 17.3332 12.725 17.3264 12.5835 17.3129C12.4426 17.2994 12.3018 17.279 12.163 17.2513C12.0235 17.2242 11.8861 17.1897 11.75 17.149C11.6139 17.1084 11.4805 17.0603 11.3491 17.0069C11.2185 16.9527 11.0898 16.8924 10.9646 16.8254C10.8393 16.759 10.7174 16.6866 10.5996 16.6074C10.4811 16.5288 10.3674 16.4449 10.257 16.3548C10.1473 16.2654 10.0424 16.17 9.94148 16.0698C9.84127 15.9696 9.7458 15.8653 9.65507 15.7556C9.56502 15.6459 9.48038 15.5322 9.40117 15.4144C9.32195 15.2965 9.2495 15.1753 9.18179 15.0501C9.11476 14.9248 9.05382 14.7969 8.99965 14.6662C8.94481 14.5348 8.89674 14.4014 8.85544 14.266C8.81413 14.1299 8.77892 13.9925 8.75116 13.8537C8.7234 13.7142 8.70241 13.574 8.6882 13.4332C8.67398 13.2917 8.66653 13.1502 8.66653 13.008Z" fill="#3A2D28"/>
</g>
<defs>
<clipPath id="clip0_4010_773">
<rect width="26" height="26" fill="white"/>
</clipPath>
</defs>
</svg>
