<svg width="13" height="13" viewBox="0 0 13 13" fill="none" xmlns="http://www.w3.org/2000/svg">
<g clip-path="url(#clip0_4014_11282)">
<path d="M6.90995 0.242376C3.1298 0.000657424 0.000657424 3.1298 0.242376 6.90995C0.442116 10.0344 2.96561 12.5578 6.09034 12.7579C9.87016 12.9996 12.9996 9.87016 12.7579 6.09034C12.5578 2.96561 10.0344 0.442116 6.90995 0.242376ZM9.33933 9.61152C9.58613 8.76415 9.73305 7.78948 9.75303 6.74102H12.2826C12.2271 8.08537 11.7108 9.31225 10.8882 10.2686C10.5107 10.0042 9.98323 9.78045 9.33933 9.61152ZM2.1118 10.2686C1.28915 9.31225 0.772871 8.08537 0.717689 6.74102H3.24693C3.26691 7.78948 3.41383 8.76415 3.66063 9.61152C3.01672 9.78079 2.48894 10.0042 2.1118 10.2686ZM3.65928 3.39251C3.4135 4.2392 3.26657 5.21217 3.24693 6.25894H0.717689C0.772871 4.92102 1.28407 3.69956 2.09995 2.74488C2.48386 3.00521 3.01503 3.22561 3.65928 3.39251ZM6.25894 6.25894H3.72935C3.75001 5.26058 3.89863 4.31842 4.14102 3.50355C4.79305 3.6349 5.51584 3.70972 6.25894 3.72326V6.25894ZM6.25894 6.74102V9.2767C5.51449 9.29024 4.79136 9.36641 4.14204 9.49946C3.89896 8.68357 3.75034 7.7404 3.72935 6.74102H6.25894ZM6.74102 6.74102H9.27061C9.24995 7.7404 9.101 8.68357 8.85792 9.49946C8.20826 9.36641 7.48547 9.29024 6.74102 9.2767V6.74102ZM6.74102 6.25894V3.72326C7.48412 3.70972 8.20691 3.6349 8.85894 3.50321C9.10133 4.31842 9.24995 5.26058 9.27061 6.25894H6.74102ZM6.74102 3.24084V0.73597C7.53321 0.886282 8.24212 1.76581 8.70693 3.04245C8.10061 3.1606 7.43029 3.22797 6.74102 3.24084ZM6.25894 0.73597V3.24084C5.56967 3.22797 4.89935 3.1606 4.29303 3.04245C4.75784 1.76581 5.46675 0.885944 6.25894 0.73597ZM6.25894 9.75912V12.2643C5.46709 12.114 4.75886 11.2352 4.29404 9.96021C4.898 9.84037 5.56831 9.77232 6.25894 9.75912ZM6.74102 12.264V9.75912C7.43165 9.77232 8.10162 9.84037 8.70592 9.96021C8.2411 11.2352 7.53287 12.114 6.74102 12.264ZM9.75303 6.25894C9.73339 5.21217 9.58646 4.2392 9.34068 3.39251C9.98493 3.22527 10.5161 3.00521 10.9 2.74488C11.7159 3.69956 12.2271 4.92102 12.2823 6.25894H9.75303ZM10.5665 2.38534C10.229 2.5993 9.75641 2.78787 9.19342 2.93243C8.89076 2.07659 8.47977 1.38021 7.99566 0.908288C8.98014 1.17201 9.86204 1.68896 10.5665 2.38534ZM3.80688 2.93243C3.24355 2.78787 2.77128 2.5993 2.43342 2.38534C3.13792 1.68896 4.01982 1.17201 5.00464 0.908626C4.52019 1.38021 4.1092 2.07659 3.80688 2.93243ZM2.44561 10.6265C2.77602 10.4095 3.2449 10.2178 3.80824 10.0716C4.11055 10.9254 4.5212 11.6204 5.0043 12.0917C4.02558 11.8293 3.14842 11.3168 2.44561 10.6265ZM9.19172 10.0716C9.75472 10.2178 10.2239 10.4095 10.5544 10.6265C9.85154 11.3168 8.97472 11.8296 7.99566 12.0917C8.47876 11.6204 8.88907 10.9254 9.19172 10.0716Z" fill="black"/>
</g>
<defs>
<clipPath id="clip0_4014_11282">
<rect width="13" height="13" fill="white"/>
</clipPath>
</defs>
</svg>
