<svg width="15" height="14" viewBox="0 0 15 14" fill="none" xmlns="http://www.w3.org/2000/svg">
<g clip-path="url(#clip0_4117_345)">
<path d="M14.3374 6.84999C14.3374 6.96161 14.3344 7.07323 14.3288 7.18485C14.3228 7.29646 14.3142 7.40772 14.303 7.51899C14.2914 7.63025 14.2769 7.7408 14.2597 7.85135C14.2425 7.9619 14.2224 8.07209 14.1996 8.18158C14.1768 8.29106 14.151 8.39984 14.1227 8.50826C14.0939 8.61667 14.0626 8.72438 14.0286 8.83102C13.9946 8.93802 13.9576 9.04395 13.9184 9.14917C13.8789 9.25438 13.8367 9.35854 13.7915 9.46198C13.7467 9.56506 13.6993 9.66708 13.6492 9.76804C13.5988 9.86899 13.5462 9.96888 13.4909 10.0673C13.4357 10.1658 13.3778 10.2628 13.3173 10.3588C13.2572 10.4544 13.1945 10.549 13.1291 10.6418C13.0642 10.7346 12.9966 10.8259 12.9268 10.9155C12.8566 11.0054 12.7845 11.0932 12.7102 11.1796C12.6355 11.266 12.559 11.3506 12.4802 11.4334C12.4014 11.5162 12.3208 11.5969 12.2375 11.6758C12.1546 11.7551 12.0699 11.8319 11.9829 11.9069C11.8959 11.9819 11.807 12.0548 11.7163 12.1259C11.6256 12.1966 11.5334 12.2652 11.4389 12.332C11.3448 12.3985 11.2488 12.4628 11.1514 12.5247C11.0539 12.5869 10.9546 12.6466 10.8542 12.7039C10.7534 12.7614 10.6515 12.8165 10.548 12.8691C10.4446 12.9218 10.3397 12.9719 10.2337 13.0199C10.1276 13.0675 10.0205 13.1126 9.91219 13.1553C9.80354 13.1983 9.69414 13.2385 9.58362 13.2762C9.47311 13.3138 9.36184 13.3487 9.24946 13.381C9.13745 13.4134 9.02432 13.4432 8.91044 13.4706C8.79656 13.4976 8.68231 13.5221 8.56731 13.5438C8.45232 13.5655 8.33657 13.5847 8.22045 13.6011C8.10434 13.6174 7.98822 13.6313 7.87135 13.6423C7.75449 13.653 7.63763 13.6611 7.52039 13.6668C7.40315 13.6721 7.28591 13.675 7.16868 13.675C7.05144 13.675 6.9342 13.6721 6.81696 13.6668C6.69972 13.6611 6.58286 13.653 6.466 13.6423C6.34913 13.6313 6.23301 13.6174 6.1169 13.6011C6.00078 13.5847 5.88503 13.5655 5.77004 13.5438C5.65504 13.5221 5.54079 13.4976 5.42691 13.4706C5.31303 13.4432 5.1999 13.4134 5.08789 13.381C4.97551 13.3487 4.86424 13.3135 4.75373 13.2762C4.64321 13.2385 4.53381 13.1983 4.42516 13.1553C4.31689 13.1126 4.20973 13.0675 4.10369 13.0199C3.99766 12.9719 3.89274 12.9218 3.78932 12.8691C3.68589 12.8165 3.58396 12.7614 3.48315 12.7039C3.38272 12.6466 3.2834 12.5869 3.18595 12.5247C3.0885 12.4628 2.99255 12.3985 2.89846 12.332C2.804 12.2652 2.71178 12.1966 2.62105 12.1259C2.53032 12.0548 2.44146 11.9819 2.35446 11.9069C2.26747 11.8319 2.18271 11.7551 2.09982 11.6758C2.01656 11.5969 1.93592 11.5162 1.85713 11.4334C1.77835 11.3506 1.70181 11.266 1.62714 11.1796C1.55284 11.0932 1.48078 11.0054 1.41059 10.9155C1.34077 10.8259 1.27319 10.7346 1.20822 10.6418C1.14288 10.549 1.08016 10.4544 1.02004 10.3588C0.959557 10.2628 0.901685 10.1658 0.846426 10.0673C0.791168 9.96888 0.738523 9.86899 0.688118 9.76804C0.638087 9.66708 0.590669 9.56506 0.545865 9.46198C0.500687 9.35854 0.458497 9.25438 0.418919 9.14917C0.379342 9.04395 0.342752 8.93802 0.308776 8.83102C0.274799 8.72438 0.243436 8.61667 0.214687 8.50826C0.186311 8.39984 0.160549 8.29106 0.137773 8.18158C0.114997 8.07209 0.0948356 7.9619 0.0776607 7.85135C0.0604856 7.7408 0.0459244 7.63025 0.0343499 7.51899C0.0231489 7.40772 0.0145614 7.29646 0.00858748 7.18485C0.00298695 7.07323 0 6.96161 0 6.84999C0 6.73838 0.00298695 6.62676 0.00858748 6.51514C0.0145614 6.40352 0.0231489 6.29226 0.0343499 6.181C0.0459244 6.06974 0.0604856 5.95919 0.0776607 5.84864C0.0948356 5.73809 0.114997 5.62789 0.137773 5.51841C0.160549 5.40892 0.186311 5.30015 0.214687 5.19173C0.243436 5.08331 0.274799 4.97561 0.308776 4.86897C0.342752 4.76197 0.379342 4.65604 0.418919 4.55082C0.458497 4.4456 0.500687 4.34145 0.545865 4.23801C0.590669 4.13492 0.638087 4.0329 0.688118 3.93195C0.738523 3.831 0.791168 3.73111 0.846426 3.63265C0.901685 3.53418 0.959557 3.43714 1.02004 3.34116C1.08016 3.24554 1.14288 3.15099 1.20822 3.05821C1.27319 2.96543 1.34077 2.87408 1.41059 2.7845C1.48078 2.69456 1.55284 2.60676 1.62714 2.52038C1.70181 2.43401 1.77835 2.3494 1.85713 2.26658C1.93592 2.18376 2.01656 2.10306 2.09982 2.02415C2.18271 1.94488 2.26747 1.8681 2.35446 1.7931C2.44146 1.71809 2.53032 1.64522 2.62105 1.57413C2.71178 1.50339 2.804 1.43478 2.89846 1.36795C2.99255 1.30148 3.0885 1.23714 3.18595 1.17529C3.2834 1.11308 3.38272 1.05336 3.48315 0.996135C3.58396 0.938549 3.68589 0.883451 3.78932 0.830842C3.89274 0.778232 3.99766 0.728111 4.10369 0.680123C4.20973 0.63249 4.31689 0.587345 4.42516 0.544689C4.53381 0.501677 4.64321 0.46151 4.75373 0.42383C4.86424 0.38615 4.97551 0.351314 5.08789 0.318967C5.1999 0.286619 5.31303 0.25676 5.42691 0.229388C5.54079 0.202373 5.65504 0.177846 5.77004 0.156162C5.88503 0.134478 6.00078 0.115283 6.1169 0.0989314C6.23301 0.0825798 6.34913 0.0687166 6.466 0.057697C6.58286 0.047033 6.69972 0.0388572 6.81696 0.0331697C6.9342 0.0278376 7.05144 0.0249939 7.16868 0.0249939C7.28591 0.0249939 7.40315 0.0278376 7.52039 0.0331697C7.63763 0.0388572 7.75449 0.047033 7.87135 0.057697C7.98822 0.0687166 8.10434 0.0825798 8.22045 0.0989314C8.33657 0.115283 8.45232 0.134478 8.56731 0.156162C8.68231 0.177846 8.79656 0.202373 8.91044 0.229388C9.02432 0.25676 9.13745 0.286619 9.24946 0.318967C9.36184 0.351314 9.47311 0.38615 9.58362 0.42383C9.69414 0.46151 9.80354 0.501677 9.91219 0.544689C10.0205 0.587345 10.1276 0.63249 10.2337 0.680123C10.3397 0.728111 10.4446 0.778232 10.548 0.830842C10.6515 0.883451 10.7534 0.938549 10.8542 0.996135C10.9546 1.05336 11.0539 1.11308 11.1514 1.17529C11.2488 1.23714 11.3448 1.30148 11.4389 1.36795C11.5334 1.43478 11.6256 1.50339 11.7163 1.57413C11.807 1.64522 11.8959 1.71809 11.9829 1.7931C12.0699 1.8681 12.1546 1.94488 12.2375 2.02415C12.3208 2.10306 12.4014 2.18376 12.4802 2.26658C12.559 2.3494 12.6355 2.43401 12.7102 2.52038C12.7845 2.60676 12.8566 2.69456 12.9268 2.7845C12.9966 2.87408 13.0642 2.96543 13.1291 3.05821C13.1945 3.15099 13.2572 3.24554 13.3173 3.34116C13.3778 3.43714 13.4357 3.53418 13.4909 3.63265C13.5462 3.73111 13.5988 3.831 13.6492 3.93195C13.6993 4.0329 13.7467 4.13492 13.7915 4.23801C13.8367 4.34145 13.8789 4.4456 13.9184 4.55082C13.958 4.65604 13.9946 4.76197 14.0286 4.86897C14.0626 4.97561 14.0939 5.08331 14.1227 5.19173C14.151 5.30015 14.1768 5.40892 14.1996 5.51841C14.2224 5.62789 14.2425 5.73809 14.2597 5.84864C14.2769 5.95919 14.2914 6.06974 14.303 6.181C14.3142 6.29226 14.3228 6.40352 14.3288 6.51514C14.3344 6.62676 14.3374 6.73838 14.3374 6.84999Z" fill="#3A2D28"/>
<path d="M6.66835 7.27869C5.48477 6.19913 5.66809 5.69117 5.66809 5.69117C6.1516 5.24683 6.08514 4.6596 6.08514 4.6596C5.83499 4.34216 5.58483 4.02473 5.33467 3.7073C5.33467 3.7073 5.00126 3.18369 4.48451 3.46913C3.10081 4.2469 3.53429 5.58026 3.53429 5.58026C3.53429 5.59626 3.91774 6.72309 5.66809 8.27863C7.41882 9.8498 8.68566 10.2625 8.68566 10.2625C8.68566 10.2625 10.1194 10.7068 10.803 9.45309C11.0532 8.97677 10.4864 8.6117 10.4864 8.6117C10.1362 8.3419 9.78597 8.08809 9.43613 7.83393C9.43613 7.83393 8.80252 7.73867 8.36904 8.199C8.36904 8.215 7.8355 8.35789 6.66835 7.27869Z" fill="#A48374"/>
<path d="M9.04175 18.624L-47.401 -24.6156C-47.4374 -24.376 -47.5208 -24.1729 -47.5208 -23.9333V52.1865C-47.5208 55.1031 -45.1614 57.4625 -42.2395 57.4625H60.3178C63.2397 57.4625 65.599 55.1031 65.599 52.1865V-23.9333C65.599 -24.1729 65.4792 -24.376 65.4792 -24.6156L9.04175 18.624Z" fill="#A48374"/>
</g>
<defs>
<clipPath id="clip0_4117_345">
<rect width="14.3374" height="13.65" fill="white" transform="translate(0 0.0249939)"/>
</clipPath>
</defs>
</svg>
