<svg width="26" height="26" viewBox="0 0 26 26" fill="none" xmlns="http://www.w3.org/2000/svg">
<g clip-path="url(#clip0_4115_405)">
<path d="M23.2917 26H2.70833C1.2155 26 0 24.7856 0 23.2917V2.70833C0 1.21442 1.2155 0 2.70833 0H23.2917C24.7845 0 26 1.21442 26 2.70833V23.2917C26 24.7856 24.7845 26 23.2917 26ZM2.70833 1.08333C1.81242 1.08333 1.08333 1.81242 1.08333 2.70833V23.2917C1.08333 24.1876 1.81242 24.9167 2.70833 24.9167H23.2917C24.1876 24.9167 24.9167 24.1876 24.9167 23.2917V2.70833C24.9167 1.81242 24.1876 1.08333 23.2917 1.08333H2.70833Z" fill="#3A2D28"/>
<path d="M16.7592 20.5867C15.6585 20.5867 14.5264 20.2931 13.6219 20.0103C11.843 19.4546 10.1996 18.459 8.87036 17.1297C7.08286 15.3422 5.86303 12.9546 5.52503 10.5799C5.37336 9.51392 5.28453 8.15 5.95186 7.06233C6.57586 6.04725 7.70361 5.41675 8.89636 5.41675C9.10436 5.41675 9.30586 5.4395 9.49978 5.472C9.50953 5.47416 9.52036 5.47525 9.53011 5.4785C10.2018 5.60308 10.7337 6.17833 10.8279 6.88358L11.2808 10.269C11.3761 10.984 10.9969 11.6914 10.3567 11.9893C10.2863 12.0218 10.2148 12.0532 10.1411 12.0814C10.5192 12.9091 11.0381 13.6555 11.6903 14.3077C12.3424 14.9598 13.0889 15.4798 13.9176 15.8579C13.9447 15.7853 13.9761 15.7127 14.0075 15.6423C14.3054 15.0021 15.0172 14.6207 15.73 14.7193L19.1154 15.1722C19.8261 15.2664 20.4057 15.8081 20.5249 16.4884C20.5606 16.691 20.5834 16.8936 20.5834 17.1027C20.5834 18.2282 20.0341 19.2856 19.1133 19.9312C18.4254 20.4144 17.602 20.5867 16.7592 20.5867ZM8.89636 6.50008C8.07844 6.50008 7.30278 6.93233 6.87486 7.62891C6.38844 8.42191 6.47078 9.541 6.59753 10.4272C6.90303 12.5732 8.01019 14.7377 9.63628 16.3627C10.842 17.5685 12.3316 18.472 13.9447 18.9747C16.1092 19.6496 17.5955 19.6734 18.4914 19.044C19.1133 18.6085 19.5 17.8632 19.5 17.1027C19.5 16.9542 19.4816 16.8134 19.4589 16.678C19.4199 16.4527 19.2205 16.2772 18.9735 16.2447L15.5881 15.7907C15.34 15.7637 15.0919 15.8828 14.9934 16.0973C14.9089 16.2782 14.8482 16.4754 14.8114 16.6823C14.7832 16.8405 14.6868 16.977 14.5481 17.0582C14.4094 17.1373 14.2404 17.1525 14.092 17.0972C12.896 16.6574 11.8322 15.976 10.9287 15.0725C10.0252 14.1701 9.34378 13.1052 8.90394 11.9081C8.84869 11.7575 8.86278 11.5907 8.94294 11.4509C9.02311 11.3122 9.16069 11.2158 9.31886 11.1887C9.52469 11.153 9.72186 11.0912 9.90278 11.0067C10.1173 10.9071 10.244 10.6633 10.2104 10.412L9.75436 7.02658C9.72186 6.7785 9.54528 6.57916 9.32644 6.54233C9.28961 6.53475 9.25278 6.525 9.21811 6.51091C9.18453 6.51958 9.04369 6.50008 8.89636 6.50008Z" fill="#3A2D28"/>
<mask id="mask0_4115_405" style="mask-type:luminance" maskUnits="userSpaceOnUse" x="0" y="4" width="1" height="5">
<path d="M0.49292 4.17725H0.899441V8.03391H0.49292V4.17725Z" fill="white"/>
</mask>
<g mask="url(#mask0_4115_405)">
<path d="M0.49292 4.17725H0.899441V8.03391H0.49292V4.17725Z" fill="#3A2D28"/>
</g>
</g>
<defs>
<clipPath id="clip0_4115_405">
<rect width="26" height="26" fill="white"/>
</clipPath>
</defs>
</svg>
