<svg width="26" height="26" viewBox="0 0 26 26" fill="none" xmlns="http://www.w3.org/2000/svg">
<g clip-path="url(#clip0_4014_311)">
<mask id="mask0_4014_311" style="mask-type:luminance" maskUnits="userSpaceOnUse" x="0" y="0" width="26" height="26">
<path d="M26 13C26 13.2124 25.9946 13.4256 25.9844 13.638C25.9736 13.8504 25.9581 14.0622 25.9371 14.274C25.9168 14.4857 25.8904 14.6968 25.8593 14.9072C25.8282 15.1176 25.7916 15.3273 25.7504 15.5364C25.7084 15.7448 25.6617 15.9525 25.6103 16.1588C25.5589 16.3652 25.5021 16.5702 25.4405 16.7738C25.3782 16.9775 25.3119 17.1791 25.2402 17.3793C25.1685 17.5796 25.0921 17.7785 25.0102 17.9747C24.929 18.1716 24.8431 18.3658 24.7518 18.5579C24.6611 18.7507 24.565 18.9402 24.4649 19.1282C24.3648 19.3156 24.2599 19.501 24.1503 19.683C24.0414 19.8657 23.927 20.0456 23.8093 20.2222C23.6909 20.3995 23.5685 20.5734 23.4419 20.7438C23.3148 20.915 23.1842 21.0828 23.0489 21.2472C22.9142 21.4116 22.7749 21.5726 22.6321 21.7303C22.4894 21.8879 22.3425 22.0422 22.1924 22.1924C22.0422 22.3425 21.8879 22.4894 21.7303 22.6321C21.5726 22.7749 21.4116 22.9142 21.2472 23.0489C21.0828 23.1842 20.915 23.3148 20.7438 23.4419C20.5734 23.5685 20.3995 23.6909 20.2222 23.8093C20.0456 23.927 19.8657 24.0414 19.683 24.1503C19.501 24.2599 19.3156 24.3648 19.1282 24.4649C18.9402 24.565 18.7507 24.6611 18.5579 24.7518C18.3658 24.8431 18.1716 24.929 17.9747 25.0102C17.7785 25.0921 17.5796 25.1685 17.3793 25.2402C17.1791 25.3119 16.9775 25.3782 16.7738 25.4405C16.5702 25.5021 16.3652 25.5589 16.1588 25.6103C15.9525 25.6617 15.7448 25.7084 15.5364 25.7504C15.3273 25.7916 15.1176 25.8282 14.9072 25.8593C14.6968 25.8904 14.4857 25.9168 14.274 25.9371C14.0622 25.9581 13.8504 25.9736 13.638 25.9844C13.4256 25.9946 13.2124 26 13 26C12.7869 26 12.5744 25.9946 12.362 25.9844C12.1496 25.9736 11.9378 25.9581 11.726 25.9371C11.5143 25.9168 11.3032 25.8904 11.0928 25.8593C10.8817 25.8282 10.6727 25.7916 10.4636 25.7504C10.2552 25.7084 10.0475 25.6617 9.84117 25.6103C9.63482 25.5589 9.42982 25.5021 9.22618 25.4405C9.02254 25.3782 8.82092 25.3119 8.62066 25.2402C8.4204 25.1685 8.22149 25.0921 8.02529 25.0102C7.82842 24.929 7.63424 24.8431 7.4421 24.7518C7.24928 24.6611 7.05917 24.565 6.87177 24.4649C6.68436 24.3648 6.49899 24.2599 6.31632 24.1503C6.13432 24.0414 5.95436 23.927 5.77778 23.8093C5.60052 23.6909 5.42665 23.5685 5.25615 23.4419C5.08499 23.3148 4.9172 23.1842 4.7528 23.0489C4.58839 22.9142 4.42737 22.7749 4.26974 22.6321C4.1121 22.4894 3.95785 22.3425 3.80765 22.1924C3.65746 22.0422 3.51064 21.8879 3.36789 21.7303C3.22446 21.5726 3.08577 21.4116 2.95113 21.2472C2.81582 21.0828 2.68525 20.915 2.55805 20.7438C2.43154 20.5734 2.30908 20.3995 2.19068 20.2222C2.07296 20.0456 1.95863 19.8657 1.8497 19.683C1.7401 19.501 1.63523 19.3156 1.5351 19.1282C1.43497 18.9402 1.3389 18.7507 1.24824 18.5579C1.15691 18.3658 1.07099 18.1716 0.9898 17.9747C0.907937 17.7785 0.831486 17.5796 0.759771 17.3793C0.688056 17.1791 0.621754 16.9775 0.559511 16.7738C0.497944 16.5702 0.441114 16.3652 0.389696 16.1588C0.337601 15.9525 0.291595 15.7448 0.249649 15.5364C0.208379 15.3273 0.171845 15.1176 0.140723 14.9072C0.109602 14.6968 0.0832163 14.4857 0.0629196 14.274C0.0419465 14.0622 0.0263857 13.8504 0.0155608 13.638C0.00541244 13.4256 0 13.2124 0 13C0 12.7869 0.00541244 12.5744 0.0155608 12.362C0.0263857 12.1496 0.0419465 11.9378 0.0629196 11.726C0.0832163 11.5143 0.109602 11.3032 0.140723 11.0928C0.171845 10.8817 0.208379 10.6727 0.249649 10.4636C0.291595 10.2552 0.337601 10.0475 0.389696 9.84117C0.441114 9.63482 0.497944 9.42982 0.559511 9.22618C0.621754 9.02254 0.688056 8.82092 0.759771 8.62066C0.831486 8.4204 0.907937 8.22149 0.9898 8.02529C1.07099 7.82842 1.15691 7.63424 1.24824 7.4421C1.3389 7.24928 1.43497 7.05917 1.5351 6.87177C1.63523 6.68436 1.7401 6.49899 1.8497 6.31632C1.95863 6.13432 2.07296 5.95436 2.19068 5.77778C2.30908 5.60052 2.43154 5.42665 2.55805 5.25615C2.68525 5.08499 2.81582 4.9172 2.95113 4.7528C3.08577 4.58839 3.22446 4.42737 3.36789 4.26974C3.51064 4.1121 3.65746 3.95785 3.80765 3.80765C3.95785 3.65746 4.1121 3.51064 4.26974 3.36789C4.42737 3.22446 4.58839 3.08577 4.7528 2.95113C4.9172 2.81582 5.08499 2.68525 5.25615 2.55805C5.42665 2.43154 5.60052 2.30908 5.77778 2.19068C5.95436 2.07296 6.13432 1.95863 6.31632 1.8497C6.49899 1.7401 6.68436 1.63523 6.87177 1.5351C7.05917 1.43497 7.24928 1.3389 7.4421 1.24824C7.63424 1.15691 7.82842 1.07099 8.02529 0.9898C8.22149 0.907937 8.4204 0.831486 8.62066 0.759771C8.82092 0.688056 9.02254 0.621754 9.22618 0.559511C9.42982 0.497944 9.63482 0.441114 9.84117 0.389696C10.0475 0.337601 10.2552 0.291595 10.4636 0.249649C10.6727 0.208379 10.8817 0.171845 11.0928 0.140723C11.3032 0.109602 11.5143 0.0832163 11.726 0.0629196C11.9378 0.0419465 12.1496 0.0263857 12.362 0.0155608C12.5744 0.00541244 12.7869 0 13 0C13.2124 0 13.4256 0.00541244 13.638 0.0155608C13.8504 0.0263857 14.0622 0.0419465 14.274 0.0629196C14.4857 0.0832163 14.6968 0.109602 14.9072 0.140723C15.1176 0.171845 15.3273 0.208379 15.5364 0.249649C15.7448 0.291595 15.9525 0.337601 16.1588 0.389696C16.3652 0.441114 16.5702 0.497944 16.7738 0.559511C16.9775 0.621754 17.1791 0.688056 17.3793 0.759771C17.5796 0.831486 17.7785 0.907937 17.9747 0.9898C18.1716 1.07099 18.3658 1.15691 18.5579 1.24824C18.7507 1.3389 18.9402 1.43497 19.1282 1.5351C19.3156 1.63523 19.501 1.7401 19.683 1.8497C19.8657 1.95863 20.0456 2.07296 20.2222 2.19068C20.3995 2.30908 20.5734 2.43154 20.7438 2.55805C20.915 2.68525 21.0828 2.81582 21.2472 2.95113C21.4116 3.08577 21.5726 3.22446 21.7303 3.36789C21.8879 3.51064 22.0422 3.65746 22.1924 3.80765C22.3425 3.95785 22.4894 4.1121 22.6321 4.26974C22.7749 4.42737 22.9142 4.58839 23.0489 4.7528C23.1842 4.9172 23.3148 5.08499 23.4419 5.25615C23.5685 5.42665 23.6909 5.60052 23.8093 5.77778C23.927 5.95436 24.0414 6.13432 24.1503 6.31632C24.2599 6.49899 24.3648 6.68436 24.4649 6.87177C24.565 7.05917 24.6611 7.24928 24.7518 7.4421C24.8431 7.63424 24.929 7.82842 25.0102 8.02529C25.0921 8.22149 25.1685 8.4204 25.2402 8.62066C25.3119 8.82092 25.3782 9.02254 25.4405 9.22618C25.5021 9.42982 25.5589 9.63482 25.6103 9.84117C25.6617 10.0475 25.7084 10.2552 25.7504 10.4636C25.7916 10.6727 25.8282 10.8817 25.8593 11.0928C25.8904 11.3032 25.9168 11.5143 25.9371 11.726C25.9581 11.9378 25.9736 12.1496 25.9844 12.362C25.9946 12.5744 26 12.7869 26 13Z" fill="white"/>
</mask>
<g mask="url(#mask0_4014_311)">
<path d="M28.5777 -2.59797H-2.5979V28.5777H28.5777V-2.59797Z" fill="#3A2D28"/>
</g>
<path fill-rule="evenodd" clip-rule="evenodd" d="M5.87708 12.868C9.66672 11.2064 12.1997 10.1326 13.476 9.60578C17.0835 8.10604 17.833 7.84265 18.3198 7.82234C18.4207 7.82234 18.6638 7.84265 18.8263 7.96385C18.9475 8.06541 18.9881 8.2076 19.0084 8.30849C19.0288 8.41005 19.0491 8.63281 19.0288 8.81495C18.8263 10.8618 17.9955 15.8674 17.5493 18.1573C17.3672 19.1303 17.0022 19.4546 16.6576 19.4953C15.9081 19.5555 15.3204 18.9881 14.5905 18.5223C13.4557 17.7721 12.8077 17.3062 11.6932 16.577C10.4163 15.7259 11.247 15.2594 11.9769 14.5099C12.1591 14.3068 15.5025 11.2877 15.5634 11.004C15.5634 10.9633 15.5838 10.8415 15.5025 10.7812C15.4219 10.7203 15.3204 10.7406 15.2391 10.7609C15.1179 10.7812 13.2939 11.9966 9.74729 14.388C9.22052 14.753 8.75469 14.9148 8.3288 14.9148C7.86297 14.9148 6.97125 14.6514 6.30229 14.4286C5.49182 14.1653 4.84318 14.0231 4.90412 13.5776C4.94474 13.3548 5.26906 13.1117 5.87708 12.868Z" fill="#A48374"/>
</g>
<defs>
<clipPath id="clip0_4014_311">
<rect width="26" height="26" fill="white"/>
</clipPath>
</defs>
</svg>
