<svg width="26" height="26" viewBox="0 0 26 26" fill="none" xmlns="http://www.w3.org/2000/svg">
<g clip-path="url(#clip0_4075_5153)">
<path d="M12.9854 0.142883C5.89259 0.142883 0.142822 5.89265 0.142822 12.9855C0.142822 20.0783 5.89259 25.828 12.9854 25.828C20.0782 25.828 25.828 20.0783 25.828 12.9855C25.828 5.89265 20.0782 0.142883 12.9854 0.142883ZM20.7021 9.63983V11.5685C19.7925 11.5688 18.909 11.3907 18.0756 11.0391C17.5397 10.8128 17.0405 10.5214 16.5839 10.1692L16.5976 16.1056C16.5919 17.4424 16.0631 18.6984 15.1059 19.6445C14.3267 20.4145 13.3399 20.9042 12.2699 21.0629C12.0185 21.1 11.7628 21.1191 11.5039 21.1191C10.3587 21.1191 9.27133 20.7481 8.38205 20.0637C8.21481 19.9347 8.05471 19.7952 7.90231 19.6448C6.86491 18.6194 6.33009 17.2298 6.41999 15.768C6.48877 14.6553 6.93426 13.5939 7.67685 12.7623C8.65945 11.6615 10.0342 11.0505 11.5039 11.0505C11.7625 11.0505 12.0185 11.0699 12.2699 11.107V11.8202V13.804C12.0316 13.7255 11.7771 13.6821 11.5119 13.6821C10.1692 13.6821 9.08268 14.7777 9.10266 16.1216C9.1155 16.9815 9.58497 17.7329 10.2779 18.1473C10.6035 18.342 10.978 18.4627 11.3775 18.4847C11.6906 18.5018 11.9914 18.4581 12.2696 18.3662C13.2291 18.0491 13.9212 17.1482 13.9212 16.0854L13.9243 12.1099V4.85183H16.5805C16.583 5.11496 16.6099 5.37181 16.6592 5.62067C16.8596 6.62781 17.4275 7.50168 18.2175 8.09729C18.9064 8.61699 19.7643 8.92492 20.6941 8.92492L20.7018 8.92435L20.7021 9.63983Z" fill="#3A2D28"/>
</g>
<defs>
<clipPath id="clip0_4075_5153">
<rect width="26" height="26" fill="white"/>
</clipPath>
</defs>
</svg>
