<?xml version="1.0" standalone="no"?>
<!DOCTYPE svg PUBLIC "-//W3C//DTD SVG 20010904//EN"
 "http://www.w3.org/TR/2001/REC-SVG-20010904/DTD/svg10.dtd">
<svg version="1.0" xmlns="http://www.w3.org/2000/svg"
 width="1024.000000pt" height="1024.000000pt" viewBox="0 0 1024.000000 1024.000000"
 preserveAspectRatio="xMidYMid meet">

<g transform="translate(0.000000,1024.000000) scale(0.100000,-0.100000)"
fill="#000000" stroke="none">
<path d="M1963 8172 c-17 -2 -23 -10 -23 -27 0 -20 8 -26 43 -36 178 -47 239
-81 301 -167 35 -47 95 -152 386 -667 155 -275 237 -417 466 -810 240 -413
267 -460 348 -620 l81 -160 0 -248 0 -248 25 6 c40 10 231 35 273 35 21 0 39
6 42 13 2 6 8 113 13 237 l8 225 91 175 c50 96 132 250 181 341 74 136 312
590 513 977 21 41 42 79 47 85 5 7 58 107 117 222 59 116 131 251 160 300 56
94 145 190 203 220 115 57 513 34 736 -43 131 -45 238 -113 342 -216 82 -81
97 -103 148 -206 71 -146 101 -254 122 -437 14 -123 15 -164 5 -262 -14 -138
-27 -193 -80 -328 -49 -125 -104 -224 -212 -378 -93 -132 -146 -188 -293 -309
-206 -168 -484 -319 -826 -449 -104 -40 -516 -143 -750 -187 -255 -49 -430
-75 -606 -90 -230 -19 -903 -123 -1042 -160 -131 -36 -325 -110 -457 -175
-218 -108 -355 -246 -455 -455 -44 -93 -45 -97 -45 -195 0 -136 21 -177 169
-327 183 -187 301 -240 536 -242 123 0 142 2 215 28 124 43 234 104 298 166
48 47 57 61 57 91 0 19 -6 44 -14 54 -11 16 -15 17 -33 4 -11 -8 -34 -31 -52
-51 -72 -83 -235 -159 -377 -177 -179 -22 -381 33 -467 128 -86 95 -56 257 80
424 103 126 230 212 429 290 204 79 323 110 654 166 179 31 530 98 570 109 24
7 25 10 28 114 l3 107 42 5 c23 3 69 7 102 10 267 24 740 127 1134 247 170 51
407 162 667 310 244 140 336 210 546 422 237 238 374 447 459 702 l43 130 0
195 c0 223 -14 300 -82 457 -100 232 -263 397 -517 523 -285 141 -358 150
-1263 150 l-603 0 3 -32 3 -32 94 -13 c132 -18 190 -37 238 -78 104 -89 84
-193 -112 -578 -57 -112 -135 -262 -172 -333 -38 -71 -98 -187 -132 -259 -58
-119 -192 -373 -366 -695 -108 -200 -120 -220 -126 -220 -8 0 -64 95 -184 310
-53 96 -101 180 -105 185 -5 6 -38 64 -75 130 -37 66 -91 161 -119 210 -29 50
-80 137 -113 195 -33 58 -93 161 -133 230 -268 458 -402 706 -407 753 -9 87
60 141 199 155 l73 7 0 35 0 35 -515 0 c-283 0 -525 -1 -537 -3z m1627 -3266
c0 -39 -5 -67 -12 -74 -7 -5 -58 -13 -113 -17 -204 -14 -590 -98 -780 -169
-248 -94 -370 -169 -500 -309 -86 -92 -133 -178 -160 -294 -10 -40 -19 -73
-21 -73 -2 0 -16 21 -31 48 -25 42 -28 56 -28 137 0 88 1 92 44 166 61 107
168 229 254 290 116 82 330 176 507 224 135 36 690 127 818 134 21 1 22 -3 22
-63z"/>
<path d="M7735 8120 c-11 -4 -30 -19 -43 -33 -33 -35 -39 -99 -52 -542 -6
-209 -15 -468 -20 -575 -9 -196 -4 -418 11 -441 4 -7 31 -16 61 -20 60 -8 209
-1 230 12 18 12 15 429 -6 770 -9 141 -20 359 -25 485 -7 177 -13 239 -26 272
-28 69 -75 95 -130 72z"/>
<path d="M5116 7687 c-32 -62 -98 -192 -147 -289 -49 -98 -103 -199 -119 -225
l-30 -47 0 -854 c0 -679 3 -853 13 -850 6 2 90 29 185 58 l172 54 0 147 0 148
58 7 c69 9 308 -9 416 -32 89 -18 81 -21 201 77 101 82 103 85 58 94 -20 4
-187 3 -370 -1 -262 -5 -336 -4 -348 6 -13 11 -15 119 -15 911 0 494 -3 900
-8 903 -4 2 -34 -46 -66 -107z"/>
<path d="M7634 6423 c-21 -21 -18 -100 4 -111 25 -13 166 -23 228 -16 l54 7 0
63 c0 35 -3 64 -7 65 -5 1 -66 2 -136 4 -100 1 -132 -1 -143 -12z"/>
<path d="M7583 6197 c-118 -132 -243 -484 -243 -684 0 -146 58 -283 164 -389
82 -81 232 -184 268 -184 14 0 43 14 64 31 22 17 69 51 106 75 82 55 159 137
191 207 109 231 92 469 -54 760 -78 154 -127 205 -184 191 -35 -9 -32 -27 20
-119 127 -223 166 -345 168 -515 1 -88 -3 -128 -17 -170 -27 -82 -79 -170
-128 -216 -46 -44 -144 -114 -160 -114 -32 0 -185 119 -238 185 -15 19 -41 70
-57 113 -54 148 -31 330 70 559 24 55 63 131 86 168 42 71 50 102 29 110 -42
15 -67 12 -85 -8z"/>
<path d="M7671 6043 c-38 -47 -68 -114 -89 -203 -47 -193 -53 -296 -26 -403
20 -80 34 -99 71 -95 26 3 28 6 25 43 -1 22 -3 99 -4 170 -1 141 9 204 63 378
17 54 27 107 24 117 -9 28 -37 25 -64 -7z"/>
<path d="M7837 6025 c-17 -16 -14 -34 34 -200 19 -69 22 -102 22 -245 0 -91
-2 -178 -4 -195 -4 -28 -2 -30 31 -30 30 0 37 5 52 35 29 59 40 171 28 285
-19 170 -41 248 -92 323 -31 45 -47 51 -71 27z"/>
<path d="M6570 5971 c0 -5 5 -13 10 -16 6 -3 10 -2 10 4 0 5 -4 13 -10 16 -5
3 -10 2 -10 -4z"/>
<path d="M7762 5898 c-12 -6 -26 -23 -30 -37 -4 -14 -7 -118 -7 -229 0 -202 0
-204 24 -223 26 -22 30 -22 51 -9 12 8 16 46 18 224 3 206 -3 277 -23 282 -6
1 -20 -2 -33 -8z"/>
<path d="M6308 5738 c-43 -42 -78 -81 -78 -85 0 -5 41 -35 91 -68 247 -165
394 -390 470 -720 26 -115 38 -445 20 -551 -58 -332 -215 -570 -483 -732 -196
-118 -395 -178 -628 -191 -144 -7 -290 0 -357 18 -62 17 -106 51 -132 104
l-23 47 1 722 2 721 -36 -27 c-47 -36 -172 -92 -254 -115 l-66 -18 -6 -69 c-4
-38 -7 -319 -8 -625 -1 -619 -2 -627 -67 -699 -39 -43 -88 -63 -194 -80 -36
-5 -68 -10 -72 -10 -5 0 -8 -15 -8 -33 l0 -34 458 -6 c897 -13 944 -12 1162
43 592 149 1018 594 1081 1131 21 182 -4 449 -56 604 -71 211 -223 421 -400
554 -140 106 -309 206 -334 199 -3 -1 -41 -37 -83 -80z"/>
<path d="M5750 5367 c-14 -6 -135 -65 -270 -131 -145 -70 -256 -118 -271 -117
-14 0 -127 -19 -250 -44 -744 -148 -923 -186 -936 -197 -14 -11 -10 -63 7 -81
13 -15 462 70 725 136 163 42 361 107 425 141 14 7 46 14 73 15 62 3 196 57
368 149 137 74 187 111 174 131 -8 13 -13 13 -45 -2z"/>
<path d="M3889 4686 c-9 -9 -136 -25 -217 -28 -46 -1 -86 -6 -89 -12 -4 -5 -9
-244 -13 -530 -7 -501 -8 -523 -28 -576 -37 -95 -110 -151 -217 -165 -105 -14
-105 -14 -105 -50 0 -44 7 -45 259 -33 143 7 287 6 474 -2 147 -6 272 -8 277
-5 6 3 10 21 10 40 0 32 -2 33 -52 45 -181 41 -237 113 -258 328 -5 53 -10
298 -10 545 0 366 -2 447 -13 447 -8 0 -16 -2 -18 -4z"/>
<path d="M6568 2762 c-10 -20 -40 -60 -68 -87 l-51 -50 3 83 3 82 -45 0 -45 0
-2 -204 -2 -204 50 -4 50 -3 -3 75 c-3 75 -3 75 24 78 23 3 35 -7 85 -72 l58
-75 58 -1 c31 0 57 3 57 6 0 10 -109 133 -152 172 -21 19 -38 42 -38 51 0 9
34 50 75 91 l76 75 -43 6 c-24 3 -50 9 -58 12 -11 5 -20 -4 -32 -31z"/>
<path d="M2593 2782 c-41 -3 -41 -3 -47 -50 -4 -26 -5 -87 -4 -135 3 -86 2
-89 -25 -113 -37 -31 -81 -31 -112 1 -24 23 -25 30 -25 144 0 66 -3 126 -6
135 -4 11 -19 16 -50 16 l-43 0 5 -132 c7 -165 15 -195 59 -238 32 -31 42 -35
103 -38 58 -3 72 0 102 20 69 47 76 69 83 240 3 84 4 153 4 153 -1 0 -21 -1
-44 -3z"/>
<path d="M3497 2763 c-6 -31 -62 -123 -74 -123 -5 0 -25 32 -46 70 l-37 70
-61 0 c-48 0 -59 -3 -51 -12 5 -7 42 -58 82 -113 l72 -100 -5 -87 -6 -86 50
-4 49 -3 0 82 c0 111 32 194 101 261 27 26 49 49 49 52 0 3 -18 6 -41 7 -22 1
-48 5 -58 8 -14 4 -20 -1 -24 -22z"/>
<path d="M4660 2783 l-65 -4 0 -202 0 -202 90 3 c50 1 106 7 127 12 47 13 98
70 98 111 0 29 -31 71 -59 80 -10 4 -6 15 13 43 29 43 30 53 17 89 -22 57 -88
78 -221 70z m124 -89 c9 -8 16 -19 16 -23 0 -20 -29 -42 -62 -47 -36 -6 -37
-5 -43 29 -4 20 -4 40 0 46 10 17 72 13 89 -5z m4 -160 c12 -8 22 -24 22 -34
0 -43 -89 -68 -110 -31 -11 22 -13 64 -3 74 12 13 68 7 91 -9z"/>
<path d="M5230 2783 l-125 -4 0 -200 0 -200 135 3 135 3 3 39 3 38 -36 -6
c-20 -4 -61 -4 -91 0 l-54 6 0 45 0 45 66 -4 c62 -3 67 -1 75 20 16 42 3 52
-72 52 l-69 0 0 46 0 46 85 -3 85 -4 0 43 c0 23 -3 41 -7 40 -5 -1 -64 -4
-133 -5z"/>
<path d="M6070 2780 l-45 -5 0 -197 0 -196 45 -4 c25 -3 46 -4 48 -3 1 1 1 94
0 206 l-3 204 -45 -5z"/>
<path d="M6974 2776 c-86 -39 -142 -133 -131 -219 16 -118 157 -211 268 -178
87 26 166 136 156 217 -6 58 -49 129 -97 160 -48 32 -148 42 -196 20z m136
-84 c43 -21 60 -53 60 -115 0 -42 -5 -54 -34 -83 -27 -27 -42 -34 -71 -34 -48
0 -99 31 -119 74 -54 113 51 215 164 158z"/>
<path d="M7400 2779 c0 -7 24 -69 53 -138 30 -69 67 -156 82 -193 28 -67 29
-68 66 -68 37 0 37 0 60 68 12 37 49 123 83 192 33 69 62 128 64 133 2 4 -21
7 -51 7 -52 0 -55 -1 -60 -27 -4 -25 -29 -90 -74 -196 -9 -21 -19 -34 -23 -30
-4 4 -27 65 -51 136 l-44 127 -52 0 c-33 0 -53 -4 -53 -11z"/>
<path d="M8024 2654 c-36 -77 -79 -166 -95 -199 -16 -33 -29 -63 -29 -67 0 -3
25 -8 55 -10 60 -3 65 1 65 57 0 40 10 45 100 45 l68 0 8 -47 9 -48 49 -3 c80
-5 81 -2 38 85 -22 43 -63 131 -92 196 -29 64 -59 117 -66 117 -7 0 -20 3 -28
6 -13 5 -30 -23 -82 -132z m109 -39 c26 -55 23 -65 -23 -65 -22 0 -40 4 -40
10 0 17 32 90 39 90 4 0 15 -16 24 -35z"/>
<path d="M1750 2766 c0 -8 10 -27 23 -43 13 -15 47 -64 76 -107 l53 -79 -4
-79 -3 -78 58 0 c55 0 57 1 47 20 -6 11 -12 55 -13 98 l-2 77 49 65 c27 36 61
77 74 92 14 15 24 30 21 32 -2 2 -27 7 -55 11 -48 6 -52 5 -58 -17 -8 -32 -64
-118 -76 -118 -5 0 -27 31 -47 70 l-38 70 -52 0 c-39 0 -53 -4 -53 -14z"/>
<path d="M2865 2580 l0 -200 110 0 c61 0 120 -3 133 -6 21 -6 22 -3 22 44 l0
50 -81 -5 c-60 -5 -83 -3 -89 7 -4 7 -5 79 -2 161 l5 149 -49 0 -49 0 0 -200z"/>
<path d="M3855 2743 c-10 -21 -37 -83 -60 -138 -24 -55 -55 -126 -69 -159 -15
-32 -26 -60 -24 -61 2 -2 26 -5 53 -6 47 -4 50 -3 53 21 8 74 5 71 95 68 l82
-3 10 -41 c6 -23 13 -42 18 -43 4 -1 30 -1 57 -1 l50 0 -36 71 c-19 40 -53
113 -75 163 -53 121 -83 166 -112 166 -17 0 -28 -10 -42 -37z m71 -138 c11
-25 18 -47 16 -50 -6 -6 -92 -7 -92 -1 0 13 41 96 47 96 4 0 17 -20 29 -45z"/>
<path d="M5582 2580 l-2 -200 129 0 c140 0 141 0 141 60 l0 28 -64 -5 c-35 -3
-76 -3 -90 1 l-26 6 0 155 0 155 -42 0 -43 0 -3 -200z"/>
<path d="M6390 2133 c-32 -12 -70 -57 -70 -84 0 -29 43 -73 88 -90 13 -5 22
-15 19 -22 -4 -12 -28 -13 -83 -2 -40 9 -50 -6 -25 -36 15 -19 29 -23 72 -24
49 0 54 2 76 35 34 49 27 70 -32 102 -27 15 -54 29 -60 31 -6 2 -5 10 3 20 10
12 20 13 44 6 54 -15 67 15 22 50 -28 22 -30 23 -54 14z"/>
<path d="M5827 2097 c-4 -32 -1 -37 28 -37 21 0 23 -5 27 -85 5 -93 4 -90 34
-99 21 -6 21 -4 16 95 l-5 102 47 -5 c38 -5 46 -3 46 11 0 32 -16 39 -102 42
l-86 4 -5 -28z"/>
<path d="M6595 2112 c-13 -34 -5 -42 41 -42 l47 0 -5 -67 c-8 -100 -1 -133 28
-133 24 0 24 2 24 94 l0 94 30 7 c16 4 34 4 40 0 11 -7 14 35 2 50 -11 16
-201 13 -207 -3z"/>
<path d="M3206 2083 c-3 -21 -6 -77 -6 -125 0 -86 0 -88 24 -88 22 0 25 5 31
62 l7 62 29 -57 c16 -31 31 -57 34 -57 2 0 20 28 39 63 l36 62 0 -67 c0 -37 4
-69 9 -72 15 -9 39 4 44 24 7 29 -15 214 -27 222 -20 14 -26 8 -58 -57 -18
-36 -36 -65 -40 -65 -4 0 -21 26 -37 59 -27 52 -45 71 -71 71 -4 0 -10 -17
-14 -37z"/>
<path d="M3650 2093 c-7 -16 -28 -70 -47 -122 -45 -126 -31 -140 46 -46 7 9
20 14 28 11 8 -3 23 -6 34 -6 14 0 21 -9 26 -30 4 -25 10 -30 34 -30 16 0 29
5 29 11 0 16 -90 200 -108 222 -20 23 -27 22 -42 -10z m40 -65 c0 -7 3 -23 6
-35 5 -19 2 -23 -15 -23 -22 0 -25 10 -15 48 7 23 24 31 24 10z"/>
<path d="M3916 2043 c-3 -42 -6 -98 -6 -125 0 -45 2 -48 25 -48 22 0 25 5 25
33 0 58 13 60 58 7 41 -48 82 -66 82 -36 0 7 -20 40 -45 72 -25 31 -45 63 -45
70 0 6 18 28 40 48 44 39 50 56 21 56 -10 0 -37 -21 -60 -47 l-40 -48 -1 41
c0 39 -11 54 -39 54 -5 0 -11 -34 -15 -77z"/>
<path d="M4482 2020 c3 -91 5 -102 28 -124 36 -35 60 -39 98 -16 44 27 62 74
62 160 0 68 -1 70 -25 70 -24 0 -25 -2 -25 -75 0 -62 -4 -79 -20 -95 -46 -46
-74 -14 -74 83 -1 76 -8 97 -33 97 -13 0 -14 -15 -11 -100z"/>
<path d="M4815 2110 c-3 -5 -8 -61 -12 -125 -6 -113 -6 -115 15 -115 17 0 22
6 22 28 0 35 9 48 41 55 76 19 104 92 54 142 -18 19 -35 25 -69 25 -25 0 -47
-4 -51 -10z m89 -56 c10 -27 7 -34 -21 -45 -33 -12 -48 1 -39 35 7 30 50 37
60 10z"/>
<path d="M5311 2098 c-6 -13 -28 -63 -50 -113 -36 -81 -38 -91 -23 -102 23
-18 29 -16 44 15 20 41 64 43 95 3 14 -17 34 -31 45 -31 18 0 20 4 15 36 -7
44 -87 207 -104 212 -7 2 -17 -7 -22 -20z m29 -87 c0 -5 3 -16 6 -25 7 -18 -4
-20 -25 -7 -8 5 -11 16 -8 25 7 17 27 22 27 7z"/>
<path d="M5574 2112 c-7 -4 -15 -54 -19 -116 -6 -86 -4 -110 6 -117 29 -18 39
-9 39 32 0 50 15 48 49 -4 19 -28 31 -37 53 -37 34 0 34 3 3 44 -32 42 -31 51
5 93 17 18 30 37 30 41 -2 43 -126 91 -166 64z m86 -57 c16 -20 -3 -45 -35
-45 -22 0 -41 33 -29 52 9 13 51 9 64 -7z"/>
<path d="M6137 2114 c-4 -4 -7 -61 -7 -126 0 -118 0 -119 23 -116 21 3 22 6
22 123 0 100 -3 120 -15 123 -9 1 -19 0 -23 -4z"/>
<path d="M4206 2064 c-8 -59 -8 -118 0 -166 l7 -38 68 0 69 0 0 29 c0 28 -2
30 -47 33 -41 3 -48 6 -51 26 -3 20 1 22 42 22 39 0 46 3 46 20 0 16 -7 20
-34 20 -37 0 -62 21 -52 45 4 11 20 15 56 15 43 0 50 3 50 20 0 18 -7 20 -74
20 l-73 0 -7 -46z"/>
</g>
</svg>
