<svg version="1.0" preserveAspectRatio="xMidYMid meet" viewBox="0 134.99999676000002 373.5 114.749997246" zoomAndPan="magnify" xmlns:xlink="http://www.w3.org/1999/xlink" xmlns="http://www.w3.org/2000/svg" style="max-height: 500px" width="373.5" height="114.749997246"><defs><g/></defs><rect fill-opacity="1" height="449.999989" y="-37.499999" fill="#ffffff" width="450" x="-37.5"/><rect fill-opacity="1" height="449.999989" y="-37.499999" fill="#ffffff" width="450" x="-37.5"/><g fill-opacity="1" fill="#4b4646"><g transform="translate(66.563677, 174.170921)"><g><path d="M 28.96875 -29.390625 C 29.03125 -29.390625 29.0625 -29.296875 29.0625 -29.109375 C 29.0625 -28.921875 29.03125 -28.828125 28.96875 -28.828125 C 27.863281 -28.828125 26.707031 -28.378906 25.5 -27.484375 C 24.300781 -26.585938 23.226562 -25.375 22.28125 -23.84375 L 16.21875 -14.4375 L 16.21875 -3.8125 C 16.21875 -2.832031 16.3125 -2.125 16.5 -1.6875 C 16.6875 -1.25 17.039062 -0.953125 17.5625 -0.796875 C 18.082031 -0.640625 18.921875 -0.5625 20.078125 -0.5625 C 20.171875 -0.5625 20.21875 -0.46875 20.21875 -0.28125 C 20.21875 -0.09375 20.171875 0 20.078125 0 C 19.109375 0 18.351562 -0.015625 17.8125 -0.046875 L 14.484375 -0.09375 L 11.234375 -0.046875 C 10.640625 -0.015625 9.84375 0 8.84375 0 C 8.78125 0 8.75 -0.09375 8.75 -0.28125 C 8.75 -0.46875 8.78125 -0.5625 8.84375 -0.5625 C 10 -0.5625 10.84375 -0.640625 11.375 -0.796875 C 11.90625 -0.953125 12.269531 -1.253906 12.46875 -1.703125 C 12.675781 -2.160156 12.78125 -2.863281 12.78125 -3.8125 L 12.78125 -13.6875 L 5.171875 -24.96875 C 4.234375 -26.40625 3.367188 -27.40625 2.578125 -27.96875 C 1.796875 -28.539062 0.9375 -28.828125 0 -28.828125 C -0.09375 -28.828125 -0.140625 -28.921875 -0.140625 -29.109375 C -0.140625 -29.296875 -0.09375 -29.390625 0 -29.390625 L 1.640625 -29.34375 C 2.398438 -29.28125 2.953125 -29.25 3.296875 -29.25 C 4.359375 -29.25 5.734375 -29.28125 7.421875 -29.34375 L 10.0625 -29.390625 C 10.125 -29.390625 10.15625 -29.296875 10.15625 -29.109375 C 10.15625 -28.921875 10.125 -28.828125 10.0625 -28.828125 C 8.519531 -28.828125 7.75 -28.460938 7.75 -27.734375 C 7.75 -27.421875 7.925781 -27.015625 8.28125 -26.515625 L 15.65625 -15.5625 L 21.109375 -24.125 C 21.828125 -25.3125 22.1875 -26.28125 22.1875 -27.03125 C 22.1875 -28.226562 21.34375 -28.828125 19.65625 -28.828125 C 19.59375 -28.828125 19.5625 -28.921875 19.5625 -29.109375 C 19.5625 -29.296875 19.59375 -29.390625 19.65625 -29.390625 L 21.90625 -29.34375 C 23.164062 -29.28125 24.296875 -29.25 25.296875 -29.25 C 25.828125 -29.25 26.46875 -29.28125 27.21875 -29.34375 Z M 28.96875 -29.390625"/></g></g></g><g fill-opacity="1" fill="#4b4646"><g transform="translate(110.808152, 174.170921)"><g><path d="M 26.890625 -24.078125 C 26.890625 -25.640625 26.535156 -26.820312 25.828125 -27.625 C 25.128906 -28.425781 24.101562 -28.828125 22.75 -28.828125 C 22.65625 -28.828125 22.609375 -28.921875 22.609375 -29.109375 C 22.609375 -29.296875 22.65625 -29.390625 22.75 -29.390625 L 24.828125 -29.34375 C 25.890625 -29.28125 26.78125 -29.25 27.5 -29.25 C 28.09375 -29.25 28.894531 -29.28125 29.90625 -29.34375 L 31.875 -29.390625 C 31.9375 -29.390625 31.96875 -29.296875 31.96875 -29.109375 C 31.96875 -28.921875 31.9375 -28.828125 31.875 -28.828125 C 30.625 -28.828125 29.679688 -28.425781 29.046875 -27.625 C 28.421875 -26.820312 28.109375 -25.640625 28.109375 -24.078125 L 28.109375 -10.765625 C 28.109375 -7.222656 27.085938 -4.441406 25.046875 -2.421875 C 23.015625 -0.398438 20.289062 0.609375 16.875 0.609375 C 14.5625 0.609375 12.535156 0.15625 10.796875 -0.75 C 9.054688 -1.65625 7.695312 -2.945312 6.71875 -4.625 C 5.75 -6.300781 5.265625 -8.269531 5.265625 -10.53125 L 5.265625 -25.578125 C 5.265625 -26.515625 5.171875 -27.203125 4.984375 -27.640625 C 4.796875 -28.078125 4.4375 -28.382812 3.90625 -28.5625 C 3.375 -28.738281 2.523438 -28.828125 1.359375 -28.828125 C 1.296875 -28.828125 1.265625 -28.921875 1.265625 -29.109375 C 1.265625 -29.296875 1.296875 -29.390625 1.359375 -29.390625 L 3.71875 -29.34375 C 5.09375 -29.28125 6.171875 -29.25 6.953125 -29.25 C 7.835938 -29.25 8.96875 -29.28125 10.34375 -29.34375 L 12.546875 -29.390625 C 12.640625 -29.390625 12.6875 -29.296875 12.6875 -29.109375 C 12.6875 -28.921875 12.640625 -28.828125 12.546875 -28.828125 C 11.421875 -28.828125 10.59375 -28.726562 10.0625 -28.53125 C 9.53125 -28.34375 9.171875 -28.019531 8.984375 -27.5625 C 8.796875 -27.113281 8.703125 -26.421875 8.703125 -25.484375 L 8.703125 -12.171875 C 8.703125 -8.472656 9.515625 -5.660156 11.140625 -3.734375 C 12.773438 -1.804688 15.078125 -0.84375 18.046875 -0.84375 C 20.835938 -0.84375 23.007812 -1.710938 24.5625 -3.453125 C 26.113281 -5.191406 26.890625 -7.613281 26.890625 -10.71875 Z M 26.890625 -24.078125"/></g></g></g><g fill-opacity="1" fill="#4b4646"><g transform="translate(159.189998, 174.170921)"><g><path d="M 8.9375 -4 C 8.9375 -3.125 9.019531 -2.476562 9.1875 -2.0625 C 9.363281 -1.65625 9.691406 -1.378906 10.171875 -1.234375 C 10.660156 -1.097656 11.4375 -1.03125 12.5 -1.03125 L 17.015625 -1.03125 C 18.898438 -1.03125 20.441406 -1.601562 21.640625 -2.75 C 22.847656 -3.894531 23.644531 -5.453125 24.03125 -7.421875 C 24.03125 -7.515625 24.113281 -7.550781 24.28125 -7.53125 C 24.457031 -7.519531 24.546875 -7.46875 24.546875 -7.375 C 24.265625 -4.71875 24.125 -2.492188 24.125 -0.703125 C 24.125 -0.453125 24.078125 -0.269531 23.984375 -0.15625 C 23.890625 -0.0507812 23.695312 0 23.40625 0 L 1.59375 0 C 1.53125 0 1.5 -0.09375 1.5 -0.28125 C 1.5 -0.46875 1.53125 -0.5625 1.59375 -0.5625 C 2.757812 -0.5625 3.609375 -0.640625 4.140625 -0.796875 C 4.671875 -0.953125 5.03125 -1.253906 5.21875 -1.703125 C 5.40625 -2.160156 5.5 -2.863281 5.5 -3.8125 L 5.5 -25.578125 C 5.5 -26.515625 5.40625 -27.203125 5.21875 -27.640625 C 5.03125 -28.078125 4.671875 -28.382812 4.140625 -28.5625 C 3.609375 -28.738281 2.757812 -28.828125 1.59375 -28.828125 C 1.53125 -28.828125 1.5 -28.921875 1.5 -29.109375 C 1.5 -29.296875 1.53125 -29.390625 1.59375 -29.390625 L 3.953125 -29.34375 C 5.265625 -29.28125 6.34375 -29.25 7.1875 -29.25 C 8.101562 -29.25 9.21875 -29.28125 10.53125 -29.34375 L 12.828125 -29.390625 C 12.890625 -29.390625 12.921875 -29.296875 12.921875 -29.109375 C 12.921875 -28.921875 12.890625 -28.828125 12.828125 -28.828125 C 11.703125 -28.828125 10.863281 -28.738281 10.3125 -28.5625 C 9.769531 -28.382812 9.40625 -28.066406 9.21875 -27.609375 C 9.03125 -27.160156 8.9375 -26.46875 8.9375 -25.53125 Z M 8.9375 -4"/></g></g></g><g fill-opacity="1" fill="#4b4646"><g transform="translate(199.861291, 174.170921)"><g><path d="M 9.59375 -3.8125 C 9.59375 -2.832031 9.6875 -2.125 9.875 -1.6875 C 10.0625 -1.25 10.421875 -0.953125 10.953125 -0.796875 C 11.484375 -0.640625 12.332031 -0.5625 13.5 -0.5625 C 13.5625 -0.5625 13.59375 -0.46875 13.59375 -0.28125 C 13.59375 -0.09375 13.5625 0 13.5 0 C 12.519531 0 11.75 -0.015625 11.1875 -0.046875 L 7.796875 -0.09375 L 4.5625 -0.046875 C 3.96875 -0.015625 3.164062 0 2.15625 0 C 2.0625 0 2.015625 -0.09375 2.015625 -0.28125 C 2.015625 -0.46875 2.0625 -0.5625 2.15625 -0.5625 C 3.320312 -0.5625 4.171875 -0.640625 4.703125 -0.796875 C 5.234375 -0.953125 5.597656 -1.253906 5.796875 -1.703125 C 6.003906 -2.160156 6.109375 -2.863281 6.109375 -3.8125 L 6.109375 -25.578125 C 6.109375 -26.515625 6.003906 -27.203125 5.796875 -27.640625 C 5.597656 -28.078125 5.234375 -28.382812 4.703125 -28.5625 C 4.171875 -28.738281 3.320312 -28.828125 2.15625 -28.828125 C 2.0625 -28.828125 2.015625 -28.921875 2.015625 -29.109375 C 2.015625 -29.296875 2.0625 -29.390625 2.15625 -29.390625 L 4.5625 -29.34375 C 5.875 -29.28125 6.953125 -29.25 7.796875 -29.25 C 8.710938 -29.25 9.859375 -29.28125 11.234375 -29.34375 L 13.5 -29.390625 C 13.5625 -29.390625 13.59375 -29.296875 13.59375 -29.109375 C 13.59375 -28.921875 13.5625 -28.828125 13.5 -28.828125 C 12.363281 -28.828125 11.519531 -28.726562 10.96875 -28.53125 C 10.425781 -28.34375 10.0625 -28.019531 9.875 -27.5625 C 9.6875 -27.113281 9.59375 -26.421875 9.59375 -25.484375 Z M 9.59375 -3.8125"/></g></g></g><g fill-opacity="1" fill="#4b4646"><g transform="translate(231.082465, 174.170921)"><g><path d="M 28.96875 -29.390625 C 29.03125 -29.390625 29.0625 -29.296875 29.0625 -29.109375 C 29.0625 -28.921875 29.03125 -28.828125 28.96875 -28.828125 C 27.863281 -28.828125 26.707031 -28.378906 25.5 -27.484375 C 24.300781 -26.585938 23.226562 -25.375 22.28125 -23.84375 L 16.21875 -14.4375 L 16.21875 -3.8125 C 16.21875 -2.832031 16.3125 -2.125 16.5 -1.6875 C 16.6875 -1.25 17.039062 -0.953125 17.5625 -0.796875 C 18.082031 -0.640625 18.921875 -0.5625 20.078125 -0.5625 C 20.171875 -0.5625 20.21875 -0.46875 20.21875 -0.28125 C 20.21875 -0.09375 20.171875 0 20.078125 0 C 19.109375 0 18.351562 -0.015625 17.8125 -0.046875 L 14.484375 -0.09375 L 11.234375 -0.046875 C 10.640625 -0.015625 9.84375 0 8.84375 0 C 8.78125 0 8.75 -0.09375 8.75 -0.28125 C 8.75 -0.46875 8.78125 -0.5625 8.84375 -0.5625 C 10 -0.5625 10.84375 -0.640625 11.375 -0.796875 C 11.90625 -0.953125 12.269531 -1.253906 12.46875 -1.703125 C 12.675781 -2.160156 12.78125 -2.863281 12.78125 -3.8125 L 12.78125 -13.6875 L 5.171875 -24.96875 C 4.234375 -26.40625 3.367188 -27.40625 2.578125 -27.96875 C 1.796875 -28.539062 0.9375 -28.828125 0 -28.828125 C -0.09375 -28.828125 -0.140625 -28.921875 -0.140625 -29.109375 C -0.140625 -29.296875 -0.09375 -29.390625 0 -29.390625 L 1.640625 -29.34375 C 2.398438 -29.28125 2.953125 -29.25 3.296875 -29.25 C 4.359375 -29.25 5.734375 -29.28125 7.421875 -29.34375 L 10.0625 -29.390625 C 10.125 -29.390625 10.15625 -29.296875 10.15625 -29.109375 C 10.15625 -28.921875 10.125 -28.828125 10.0625 -28.828125 C 8.519531 -28.828125 7.75 -28.460938 7.75 -27.734375 C 7.75 -27.421875 7.925781 -27.015625 8.28125 -26.515625 L 15.65625 -15.5625 L 21.109375 -24.125 C 21.828125 -25.3125 22.1875 -26.28125 22.1875 -27.03125 C 22.1875 -28.226562 21.34375 -28.828125 19.65625 -28.828125 C 19.59375 -28.828125 19.5625 -28.921875 19.5625 -29.109375 C 19.5625 -29.296875 19.59375 -29.390625 19.65625 -29.390625 L 21.90625 -29.34375 C 23.164062 -29.28125 24.296875 -29.25 25.296875 -29.25 C 25.828125 -29.25 26.46875 -29.28125 27.21875 -29.34375 Z M 28.96875 -29.390625"/></g></g></g><g fill-opacity="1" fill="#4b4646"><g transform="translate(275.326946, 174.170921)"><g><path d="M 33 -0.5625 C 33.125 -0.5625 33.1875 -0.46875 33.1875 -0.28125 C 33.1875 -0.09375 33.125 0 33 0 C 32.40625 0 31.484375 -0.03125 30.234375 -0.09375 C 28.972656 -0.15625 28.046875 -0.1875 27.453125 -0.1875 C 26.734375 -0.1875 25.84375 -0.15625 24.78125 -0.09375 C 23.769531 -0.03125 22.984375 0 22.421875 0 C 22.296875 0 22.234375 -0.09375 22.234375 -0.28125 C 22.234375 -0.46875 22.296875 -0.5625 22.421875 -0.5625 C 23.554688 -0.5625 24.363281 -0.660156 24.84375 -0.859375 C 25.332031 -1.066406 25.578125 -1.4375 25.578125 -1.96875 C 25.578125 -2.445312 25.359375 -3.15625 24.921875 -4.09375 L 20.875 -12.546875 L 9.640625 -12.546875 L 6.859375 -6.109375 C 6.453125 -5.171875 6.25 -4.3125 6.25 -3.53125 C 6.25 -1.550781 7.769531 -0.5625 10.8125 -0.5625 C 10.96875 -0.5625 11.046875 -0.46875 11.046875 -0.28125 C 11.046875 -0.09375 10.96875 0 10.8125 0 C 10.25 0 9.4375 -0.03125 8.375 -0.09375 C 7.175781 -0.15625 6.140625 -0.1875 5.265625 -0.1875 C 4.484375 -0.1875 3.523438 -0.15625 2.390625 -0.09375 C 1.453125 -0.03125 0.65625 0 0 0 C -0.15625 0 -0.234375 -0.09375 -0.234375 -0.28125 C -0.234375 -0.46875 -0.15625 -0.5625 0 -0.5625 C 0.875 -0.5625 1.617188 -0.722656 2.234375 -1.046875 C 2.847656 -1.378906 3.4375 -1.96875 4 -2.8125 C 4.5625 -3.664062 5.1875 -4.90625 5.875 -6.53125 L 15.796875 -29.765625 C 15.859375 -29.859375 15.984375 -29.90625 16.171875 -29.90625 C 16.359375 -29.90625 16.46875 -29.859375 16.5 -29.765625 L 27.6875 -6.4375 C 28.757812 -4.15625 29.671875 -2.601562 30.421875 -1.78125 C 31.171875 -0.96875 32.03125 -0.5625 33 -0.5625 Z M 10.0625 -13.546875 L 20.40625 -13.546875 L 14.953125 -24.921875 Z M 10.0625 -13.546875"/></g></g></g><g fill-opacity="1" fill="#4b4646"><g transform="translate(21.28243, 220.670918)"><g><path d="M 15.84375 -16.546875 C 18.351562 -16.328125 20.367188 -15.488281 21.890625 -14.03125 C 23.410156 -12.570312 24.171875 -10.78125 24.171875 -8.65625 C 24.171875 -6.988281 23.742188 -5.476562 22.890625 -4.125 C 22.046875 -2.78125 20.894531 -1.722656 19.4375 -0.953125 C 17.976562 -0.191406 16.34375 0.1875 14.53125 0.1875 C 13.519531 0.1875 12.421875 0.140625 11.234375 0.046875 C 10.796875 0.015625 10.28125 -0.015625 9.6875 -0.046875 C 9.09375 -0.078125 8.414062 -0.09375 7.65625 -0.09375 L 4.421875 -0.046875 C 3.828125 -0.015625 3.023438 0 2.015625 0 C 1.953125 0 1.921875 -0.09375 1.921875 -0.28125 C 1.921875 -0.46875 1.953125 -0.5625 2.015625 -0.5625 C 3.148438 -0.5625 3.988281 -0.644531 4.53125 -0.8125 C 5.082031 -0.988281 5.457031 -1.296875 5.65625 -1.734375 C 5.863281 -2.171875 5.96875 -2.863281 5.96875 -3.8125 L 5.96875 -25.578125 C 5.96875 -26.515625 5.875 -27.203125 5.6875 -27.640625 C 5.5 -28.078125 5.140625 -28.382812 4.609375 -28.5625 C 4.078125 -28.738281 3.242188 -28.828125 2.109375 -28.828125 C 2.015625 -28.828125 1.96875 -28.921875 1.96875 -29.109375 C 1.96875 -29.296875 2.015625 -29.390625 2.109375 -29.390625 L 4.421875 -29.34375 C 5.734375 -29.28125 6.8125 -29.25 7.65625 -29.25 C 8.226562 -29.25 8.753906 -29.265625 9.234375 -29.296875 C 9.722656 -29.328125 10.140625 -29.359375 10.484375 -29.390625 C 11.453125 -29.484375 12.378906 -29.53125 13.265625 -29.53125 C 15.953125 -29.53125 17.96875 -28.960938 19.3125 -27.828125 C 20.664062 -26.703125 21.34375 -25.195312 21.34375 -23.3125 C 21.34375 -21.8125 20.859375 -20.472656 19.890625 -19.296875 C 18.921875 -18.117188 17.570312 -17.203125 15.84375 -16.546875 Z M 12.3125 -28.78125 C 11.53125 -28.78125 10.941406 -28.707031 10.546875 -28.5625 C 10.160156 -28.414062 9.875 -28.109375 9.6875 -27.640625 C 9.5 -27.171875 9.40625 -26.453125 9.40625 -25.484375 L 9.40625 -16.546875 L 11.515625 -16.5 C 13.679688 -16.5 15.285156 -17.09375 16.328125 -18.28125 C 17.378906 -19.476562 17.90625 -21.046875 17.90625 -22.984375 C 17.90625 -24.742188 17.453125 -26.148438 16.546875 -27.203125 C 15.640625 -28.253906 14.226562 -28.78125 12.3125 -28.78125 Z M 13.828125 -0.703125 C 16.078125 -0.703125 17.75 -1.289062 18.84375 -2.46875 C 19.945312 -3.644531 20.5 -5.3125 20.5 -7.46875 C 20.5 -9.851562 19.816406 -11.773438 18.453125 -13.234375 C 17.085938 -14.691406 15.195312 -15.4375 12.78125 -15.46875 C 11.90625 -15.5 10.78125 -15.46875 9.40625 -15.375 L 9.40625 -3.8125 C 9.40625 -3.03125 9.519531 -2.414062 9.75 -1.96875 C 9.988281 -1.53125 10.421875 -1.207031 11.046875 -1 C 11.671875 -0.800781 12.597656 -0.703125 13.828125 -0.703125 Z M 13.828125 -0.703125"/></g></g></g><g fill-opacity="1" fill="#4b4646"><g transform="translate(63.364189, 220.670918)"><g><path d="M 22.515625 -7.046875 C 22.515625 -7.140625 22.609375 -7.175781 22.796875 -7.15625 C 22.984375 -7.144531 23.078125 -7.09375 23.078125 -7 C 22.796875 -4.96875 22.65625 -2.867188 22.65625 -0.703125 C 22.65625 -0.453125 22.597656 -0.269531 22.484375 -0.15625 C 22.378906 -0.0507812 22.1875 0 21.90625 0 L 2.015625 0 C 1.953125 0 1.921875 -0.09375 1.921875 -0.28125 C 1.921875 -0.46875 1.953125 -0.5625 2.015625 -0.5625 C 3.179688 -0.5625 4.03125 -0.640625 4.5625 -0.796875 C 5.09375 -0.953125 5.453125 -1.253906 5.640625 -1.703125 C 5.828125 -2.160156 5.921875 -2.863281 5.921875 -3.8125 L 5.921875 -25.578125 C 5.921875 -26.515625 5.828125 -27.203125 5.640625 -27.640625 C 5.453125 -28.078125 5.09375 -28.382812 4.5625 -28.5625 C 4.03125 -28.738281 3.179688 -28.828125 2.015625 -28.828125 C 1.953125 -28.828125 1.921875 -28.921875 1.921875 -29.109375 C 1.921875 -29.296875 1.953125 -29.390625 2.015625 -29.390625 L 21.109375 -29.390625 C 21.390625 -29.390625 21.53125 -29.25 21.53125 -28.96875 L 21.625 -23.078125 C 21.625 -22.984375 21.535156 -22.9375 21.359375 -22.9375 C 21.191406 -22.9375 21.109375 -22.984375 21.109375 -23.078125 C 20.921875 -24.773438 20.335938 -26.078125 19.359375 -26.984375 C 18.390625 -27.890625 17.125 -28.34375 15.5625 -28.34375 L 12.96875 -28.34375 C 11.5 -28.34375 10.53125 -28.140625 10.0625 -27.734375 C 9.59375 -27.328125 9.359375 -26.546875 9.359375 -25.390625 L 9.359375 -15.796875 L 14.765625 -15.796875 C 16.328125 -15.796875 17.460938 -16.0625 18.171875 -16.59375 C 18.878906 -17.125 19.234375 -17.988281 19.234375 -19.1875 C 19.234375 -19.25 19.328125 -19.28125 19.515625 -19.28125 C 19.703125 -19.28125 19.796875 -19.25 19.796875 -19.1875 L 19.75 -15.28125 C 19.75 -14.375 19.765625 -13.6875 19.796875 -13.21875 L 19.84375 -10.859375 C 19.84375 -10.796875 19.75 -10.765625 19.5625 -10.765625 C 19.375 -10.765625 19.28125 -10.796875 19.28125 -10.859375 C 19.28125 -12.234375 18.914062 -13.226562 18.1875 -13.84375 C 17.46875 -14.457031 16.296875 -14.765625 14.671875 -14.765625 L 9.359375 -14.765625 L 9.359375 -4 C 9.359375 -3.1875 9.453125 -2.570312 9.640625 -2.15625 C 9.828125 -1.75 10.15625 -1.457031 10.625 -1.28125 C 11.09375 -1.113281 11.8125 -1.03125 12.78125 -1.03125 L 16.125 -1.03125 C 17.789062 -1.03125 19.171875 -1.554688 20.265625 -2.609375 C 21.359375 -3.660156 22.109375 -5.140625 22.515625 -7.046875 Z M 22.515625 -7.046875"/></g></g></g><g fill-opacity="1" fill="#4b4646"><g transform="translate(104.27056, 220.670918)"><g><path d="M 8.9375 -4 C 8.9375 -3.125 9.019531 -2.476562 9.1875 -2.0625 C 9.363281 -1.65625 9.691406 -1.378906 10.171875 -1.234375 C 10.660156 -1.097656 11.4375 -1.03125 12.5 -1.03125 L 17.015625 -1.03125 C 18.898438 -1.03125 20.441406 -1.601562 21.640625 -2.75 C 22.847656 -3.894531 23.644531 -5.453125 24.03125 -7.421875 C 24.03125 -7.515625 24.113281 -7.550781 24.28125 -7.53125 C 24.457031 -7.519531 24.546875 -7.46875 24.546875 -7.375 C 24.265625 -4.71875 24.125 -2.492188 24.125 -0.703125 C 24.125 -0.453125 24.078125 -0.269531 23.984375 -0.15625 C 23.890625 -0.0507812 23.695312 0 23.40625 0 L 1.59375 0 C 1.53125 0 1.5 -0.09375 1.5 -0.28125 C 1.5 -0.46875 1.53125 -0.5625 1.59375 -0.5625 C 2.757812 -0.5625 3.609375 -0.640625 4.140625 -0.796875 C 4.671875 -0.953125 5.03125 -1.253906 5.21875 -1.703125 C 5.40625 -2.160156 5.5 -2.863281 5.5 -3.8125 L 5.5 -25.578125 C 5.5 -26.515625 5.40625 -27.203125 5.21875 -27.640625 C 5.03125 -28.078125 4.671875 -28.382812 4.140625 -28.5625 C 3.609375 -28.738281 2.757812 -28.828125 1.59375 -28.828125 C 1.53125 -28.828125 1.5 -28.921875 1.5 -29.109375 C 1.5 -29.296875 1.53125 -29.390625 1.59375 -29.390625 L 3.953125 -29.34375 C 5.265625 -29.28125 6.34375 -29.25 7.1875 -29.25 C 8.101562 -29.25 9.21875 -29.28125 10.53125 -29.34375 L 12.828125 -29.390625 C 12.890625 -29.390625 12.921875 -29.296875 12.921875 -29.109375 C 12.921875 -28.921875 12.890625 -28.828125 12.828125 -28.828125 C 11.703125 -28.828125 10.863281 -28.738281 10.3125 -28.5625 C 9.769531 -28.382812 9.40625 -28.066406 9.21875 -27.609375 C 9.03125 -27.160156 8.9375 -26.46875 8.9375 -25.53125 Z M 8.9375 -4"/></g></g></g><g fill-opacity="1" fill="#4b4646"><g transform="translate(144.941853, 220.670918)"><g><path d="M 9.59375 -3.8125 C 9.59375 -2.832031 9.6875 -2.125 9.875 -1.6875 C 10.0625 -1.25 10.421875 -0.953125 10.953125 -0.796875 C 11.484375 -0.640625 12.332031 -0.5625 13.5 -0.5625 C 13.5625 -0.5625 13.59375 -0.46875 13.59375 -0.28125 C 13.59375 -0.09375 13.5625 0 13.5 0 C 12.519531 0 11.75 -0.015625 11.1875 -0.046875 L 7.796875 -0.09375 L 4.5625 -0.046875 C 3.96875 -0.015625 3.164062 0 2.15625 0 C 2.0625 0 2.015625 -0.09375 2.015625 -0.28125 C 2.015625 -0.46875 2.0625 -0.5625 2.15625 -0.5625 C 3.320312 -0.5625 4.171875 -0.640625 4.703125 -0.796875 C 5.234375 -0.953125 5.597656 -1.253906 5.796875 -1.703125 C 6.003906 -2.160156 6.109375 -2.863281 6.109375 -3.8125 L 6.109375 -25.578125 C 6.109375 -26.515625 6.003906 -27.203125 5.796875 -27.640625 C 5.597656 -28.078125 5.234375 -28.382812 4.703125 -28.5625 C 4.171875 -28.738281 3.320312 -28.828125 2.15625 -28.828125 C 2.0625 -28.828125 2.015625 -28.921875 2.015625 -29.109375 C 2.015625 -29.296875 2.0625 -29.390625 2.15625 -29.390625 L 4.5625 -29.34375 C 5.875 -29.28125 6.953125 -29.25 7.796875 -29.25 C 8.710938 -29.25 9.859375 -29.28125 11.234375 -29.34375 L 13.5 -29.390625 C 13.5625 -29.390625 13.59375 -29.296875 13.59375 -29.109375 C 13.59375 -28.921875 13.5625 -28.828125 13.5 -28.828125 C 12.363281 -28.828125 11.519531 -28.726562 10.96875 -28.53125 C 10.425781 -28.34375 10.0625 -28.019531 9.875 -27.5625 C 9.6875 -27.113281 9.59375 -26.421875 9.59375 -25.484375 Z M 9.59375 -3.8125"/></g></g></g><g fill-opacity="1" fill="#4b4646"><g transform="translate(176.163027, 220.670918)"><g><path d="M 30.328125 -0.5625 C 30.421875 -0.5625 30.46875 -0.46875 30.46875 -0.28125 C 30.46875 -0.09375 30.421875 0 30.328125 0 L 25.0625 0 C 24.78125 0 24.300781 0.00390625 23.625 0.015625 C 22.945312 0.0351562 21.863281 -0.945312 20.375 -2.9375 C 18.882812 -4.925781 17.90625 -6.21875 17.4375 -6.8125 L 10.4375 -15.703125 L 8.984375 -14.296875 L 8.984375 -3.8125 C 8.984375 -2.832031 9.078125 -2.125 9.265625 -1.6875 C 9.453125 -1.25 9.8125 -0.953125 10.34375 -0.796875 C 10.875 -0.640625 11.71875 -0.5625 12.875 -0.5625 C 12.96875 -0.5625 13.015625 -0.46875 13.015625 -0.28125 C 13.015625 -0.09375 12.96875 0 12.875 0 C 11.875 0 11.109375 -0.015625 10.578125 -0.046875 L 7.234375 -0.09375 L 4 -0.046875 C 3.40625 -0.015625 2.601562 0 1.59375 0 C 1.53125 0 1.5 -0.09375 1.5 -0.28125 C 1.5 -0.46875 1.53125 -0.5625 1.59375 -0.5625 C 2.757812 -0.5625 3.609375 -0.640625 4.140625 -0.796875 C 4.671875 -0.953125 5.035156 -1.253906 5.234375 -1.703125 C 5.441406 -2.160156 5.546875 -2.863281 5.546875 -3.8125 L 5.546875 -25.578125 C 5.546875 -26.515625 5.453125 -27.203125 5.265625 -27.640625 C 5.078125 -28.078125 4.71875 -28.382812 4.1875 -28.5625 C 3.65625 -28.738281 2.804688 -28.828125 1.640625 -28.828125 C 1.578125 -28.828125 1.546875 -28.921875 1.546875 -29.109375 C 1.546875 -29.296875 1.578125 -29.390625 1.640625 -29.390625 L 4 -29.34375 C 5.375 -29.28125 6.453125 -29.25 7.234375 -29.25 C 8.148438 -29.25 9.265625 -29.28125 10.578125 -29.34375 L 12.875 -29.390625 C 12.9375 -29.390625 12.96875 -29.296875 12.96875 -29.109375 C 12.96875 -28.921875 12.9375 -28.828125 12.875 -28.828125 C 11.75 -28.828125 10.910156 -28.726562 10.359375 -28.53125 C 9.816406 -28.34375 9.453125 -28.019531 9.265625 -27.5625 C 9.078125 -27.113281 8.984375 -26.421875 8.984375 -25.484375 L 8.984375 -15.515625 L 18.8125 -25.390625 C 19.8125 -26.453125 20.3125 -27.234375 20.3125 -27.734375 C 20.3125 -28.460938 19.382812 -28.828125 17.53125 -28.828125 C 17.46875 -28.828125 17.4375 -28.921875 17.4375 -29.109375 C 17.4375 -29.296875 17.46875 -29.390625 17.53125 -29.390625 L 19.609375 -29.34375 C 20.859375 -29.28125 22.03125 -29.25 23.125 -29.25 C 24.226562 -29.25 25.34375 -29.28125 26.46875 -29.34375 L 28.296875 -29.390625 C 28.390625 -29.390625 28.4375 -29.296875 28.4375 -29.109375 C 28.4375 -28.921875 28.390625 -28.828125 28.296875 -28.828125 C 26.984375 -28.828125 25.570312 -28.519531 24.0625 -27.90625 C 22.5625 -27.289062 21.1875 -26.359375 19.9375 -25.109375 L 12.875 -18.09375 L 19.65625 -9.359375 C 21.90625 -6.410156 23.617188 -4.320312 24.796875 -3.09375 C 25.972656 -1.875 26.890625 -1.144531 27.546875 -0.90625 C 28.203125 -0.675781 29.128906 -0.5625 30.328125 -0.5625 Z M 30.328125 -0.5625"/></g></g></g><g fill-opacity="1" fill="#4b4646"><g transform="translate(222.288116, 220.670918)"><g><path d="M 17.203125 0.5625 C 14.285156 0.5625 11.691406 -0.117188 9.421875 -1.484375 C 7.148438 -2.847656 5.394531 -4.695312 4.15625 -7.03125 C 2.914062 -9.363281 2.296875 -11.910156 2.296875 -14.671875 C 2.296875 -17.898438 3.109375 -20.664062 4.734375 -22.96875 C 6.367188 -25.269531 8.460938 -27 11.015625 -28.15625 C 13.578125 -29.320312 16.191406 -29.90625 18.859375 -29.90625 C 21.828125 -29.90625 24.441406 -29.207031 26.703125 -27.8125 C 28.960938 -26.414062 30.691406 -24.570312 31.890625 -22.28125 C 33.097656 -20 33.703125 -17.570312 33.703125 -15 C 33.703125 -12.144531 32.953125 -9.523438 31.453125 -7.140625 C 29.953125 -4.765625 27.9375 -2.882812 25.40625 -1.5 C 22.882812 -0.125 20.148438 0.5625 17.203125 0.5625 Z M 18.859375 -0.46875 C 20.921875 -0.46875 22.773438 -0.984375 24.421875 -2.015625 C 26.066406 -3.054688 27.367188 -4.570312 28.328125 -6.5625 C 29.285156 -8.550781 29.765625 -10.925781 29.765625 -13.6875 C 29.765625 -16.59375 29.238281 -19.191406 28.1875 -21.484375 C 27.132812 -23.773438 25.632812 -25.5625 23.6875 -26.84375 C 21.75 -28.132812 19.492188 -28.78125 16.921875 -28.78125 C 13.566406 -28.78125 10.945312 -27.671875 9.0625 -25.453125 C 7.1875 -23.242188 6.25 -20.195312 6.25 -16.3125 C 6.25 -13.363281 6.78125 -10.679688 7.84375 -8.265625 C 8.914062 -5.859375 10.40625 -3.957031 12.3125 -2.5625 C 14.226562 -1.164062 16.410156 -0.46875 18.859375 -0.46875 Z M 18.859375 -0.46875"/></g></g></g><g fill-opacity="1" fill="#4b4646"><g transform="translate(273.819988, 220.670918)"><g><path d="M 31.40625 -29.390625 C 31.5 -29.390625 31.546875 -29.296875 31.546875 -29.109375 C 31.546875 -28.921875 31.5 -28.828125 31.40625 -28.828125 C 29.207031 -28.828125 27.5625 -27.476562 26.46875 -24.78125 L 16.6875 -0.046875 C 16.65625 0.078125 16.484375 0.140625 16.171875 0.140625 C 15.921875 0.140625 15.75 0.078125 15.65625 -0.046875 L 3.953125 -25.484375 C 3.390625 -26.671875 2.816406 -27.523438 2.234375 -28.046875 C 1.648438 -28.566406 0.90625 -28.828125 0 -28.828125 C -0.09375 -28.828125 -0.140625 -28.921875 -0.140625 -29.109375 C -0.140625 -29.296875 -0.09375 -29.390625 0 -29.390625 L 1.59375 -29.34375 C 2.476562 -29.28125 3.21875 -29.25 3.8125 -29.25 C 5.3125 -29.25 6.816406 -29.28125 8.328125 -29.34375 C 8.828125 -29.375 9.484375 -29.390625 10.296875 -29.390625 C 10.390625 -29.390625 10.4375 -29.296875 10.4375 -29.109375 C 10.4375 -28.921875 10.390625 -28.828125 10.296875 -28.828125 C 8.347656 -28.828125 7.375 -28.242188 7.375 -27.078125 C 7.375 -26.640625 7.515625 -26.109375 7.796875 -25.484375 L 17.34375 -4.703125 L 25.390625 -25.015625 C 25.640625 -25.703125 25.765625 -26.265625 25.765625 -26.703125 C 25.765625 -27.421875 25.472656 -27.953125 24.890625 -28.296875 C 24.316406 -28.648438 23.398438 -28.828125 22.140625 -28.828125 C 22.046875 -28.828125 22 -28.921875 22 -29.109375 C 22 -29.296875 22.046875 -29.390625 22.140625 -29.390625 L 24.21875 -29.34375 C 25.34375 -29.28125 26.359375 -29.25 27.265625 -29.25 C 27.859375 -29.25 28.597656 -29.28125 29.484375 -29.34375 Z M 31.40625 -29.390625"/></g></g></g><g fill-opacity="1" fill="#4b4646"><g transform="translate(320.603295, 220.670918)"><g><path d="M 33 -0.5625 C 33.125 -0.5625 33.1875 -0.46875 33.1875 -0.28125 C 33.1875 -0.09375 33.125 0 33 0 C 32.40625 0 31.484375 -0.03125 30.234375 -0.09375 C 28.972656 -0.15625 28.046875 -0.1875 27.453125 -0.1875 C 26.734375 -0.1875 25.84375 -0.15625 24.78125 -0.09375 C 23.769531 -0.03125 22.984375 0 22.421875 0 C 22.296875 0 22.234375 -0.09375 22.234375 -0.28125 C 22.234375 -0.46875 22.296875 -0.5625 22.421875 -0.5625 C 23.554688 -0.5625 24.363281 -0.660156 24.84375 -0.859375 C 25.332031 -1.066406 25.578125 -1.4375 25.578125 -1.96875 C 25.578125 -2.445312 25.359375 -3.15625 24.921875 -4.09375 L 20.875 -12.546875 L 9.640625 -12.546875 L 6.859375 -6.109375 C 6.453125 -5.171875 6.25 -4.3125 6.25 -3.53125 C 6.25 -1.550781 7.769531 -0.5625 10.8125 -0.5625 C 10.96875 -0.5625 11.046875 -0.46875 11.046875 -0.28125 C 11.046875 -0.09375 10.96875 0 10.8125 0 C 10.25 0 9.4375 -0.03125 8.375 -0.09375 C 7.175781 -0.15625 6.140625 -0.1875 5.265625 -0.1875 C 4.484375 -0.1875 3.523438 -0.15625 2.390625 -0.09375 C 1.453125 -0.03125 0.65625 0 0 0 C -0.15625 0 -0.234375 -0.09375 -0.234375 -0.28125 C -0.234375 -0.46875 -0.15625 -0.5625 0 -0.5625 C 0.875 -0.5625 1.617188 -0.722656 2.234375 -1.046875 C 2.847656 -1.378906 3.4375 -1.96875 4 -2.8125 C 4.5625 -3.664062 5.1875 -4.90625 5.875 -6.53125 L 15.796875 -29.765625 C 15.859375 -29.859375 15.984375 -29.90625 16.171875 -29.90625 C 16.359375 -29.90625 16.46875 -29.859375 16.5 -29.765625 L 27.6875 -6.4375 C 28.757812 -4.15625 29.671875 -2.601562 30.421875 -1.78125 C 31.171875 -0.96875 32.03125 -0.5625 33 -0.5625 Z M 10.0625 -13.546875 L 20.40625 -13.546875 L 14.953125 -24.921875 Z M 10.0625 -13.546875"/></g></g></g><g fill-opacity="1" fill="#4b4646"><g transform="translate(125.319742, 240.818696)"><g><path d="M 7.046875 -0.109375 C 7.066406 -0.109375 7.078125 -0.0859375 7.078125 -0.046875 C 7.078125 -0.015625 7.066406 0 7.046875 0 C 6.859375 0 6.707031 -0.00390625 6.59375 -0.015625 L 5.328125 -0.015625 C 5.222656 -0.00390625 5.078125 0 4.890625 0 C 4.878906 0 4.875 -0.015625 4.875 -0.046875 C 4.875 -0.0859375 4.878906 -0.109375 4.890625 -0.109375 C 5.128906 -0.109375 5.289062 -0.132812 5.375 -0.1875 C 5.457031 -0.238281 5.5 -0.359375 5.5 -0.546875 L 5.5 -0.6875 L 5.3125 -4.15625 L 3.578125 -0.0625 C 3.566406 -0.0390625 3.539062 -0.03125 3.5 -0.03125 C 3.46875 -0.03125 3.445312 -0.0390625 3.4375 -0.0625 L 1.296875 -4.125 L 1.234375 -1.078125 C 1.222656 -0.773438 1.28125 -0.535156 1.40625 -0.359375 C 1.53125 -0.191406 1.710938 -0.109375 1.953125 -0.109375 C 1.960938 -0.109375 1.96875 -0.0859375 1.96875 -0.046875 C 1.96875 -0.015625 1.960938 0 1.953125 0 C 1.796875 0 1.675781 -0.00390625 1.59375 -0.015625 L 0.59375 -0.015625 C 0.5 -0.00390625 0.378906 0 0.234375 0 C 0.210938 0 0.203125 -0.015625 0.203125 -0.046875 C 0.203125 -0.0859375 0.210938 -0.109375 0.234375 -0.109375 C 0.460938 -0.109375 0.644531 -0.191406 0.78125 -0.359375 C 0.914062 -0.535156 0.984375 -0.773438 0.984375 -1.078125 L 1.0625 -4.578125 L 1.0625 -4.59375 C 0.945312 -4.800781 0.828125 -4.953125 0.703125 -5.046875 C 0.585938 -5.140625 0.445312 -5.1875 0.28125 -5.1875 C 0.269531 -5.1875 0.265625 -5.203125 0.265625 -5.234375 C 0.265625 -5.273438 0.269531 -5.296875 0.28125 -5.296875 L 0.6875 -5.28125 C 0.757812 -5.28125 0.859375 -5.28125 0.984375 -5.28125 L 1.4375 -5.28125 C 1.488281 -5.289062 1.554688 -5.296875 1.640625 -5.296875 C 1.710938 -5.296875 1.765625 -5.269531 1.796875 -5.21875 C 1.835938 -5.164062 1.914062 -5.046875 2.03125 -4.859375 L 3.875 -1.390625 L 5.484375 -5.078125 C 5.515625 -5.160156 5.546875 -5.21875 5.578125 -5.25 C 5.617188 -5.28125 5.671875 -5.296875 5.734375 -5.296875 C 5.785156 -5.296875 5.84375 -5.289062 5.90625 -5.28125 C 5.96875 -5.28125 6.039062 -5.28125 6.125 -5.28125 L 6.625 -5.28125 C 6.707031 -5.289062 6.820312 -5.296875 6.96875 -5.296875 C 6.988281 -5.296875 7 -5.273438 7 -5.234375 C 7 -5.203125 6.988281 -5.1875 6.96875 -5.1875 C 6.707031 -5.1875 6.515625 -5.132812 6.390625 -5.03125 C 6.273438 -4.925781 6.222656 -4.757812 6.234375 -4.53125 L 6.4375 -0.6875 C 6.445312 -0.507812 6.46875 -0.378906 6.5 -0.296875 C 6.53125 -0.222656 6.585938 -0.171875 6.671875 -0.140625 C 6.753906 -0.117188 6.878906 -0.109375 7.046875 -0.109375 Z M 7.046875 -0.109375"/></g></g></g><g fill-opacity="1" fill="#4b4646"><g transform="translate(136.832348, 240.818696)"><g><path d="M 6.078125 -0.109375 C 6.097656 -0.109375 6.109375 -0.0859375 6.109375 -0.046875 C 6.109375 -0.015625 6.097656 0 6.078125 0 C 5.960938 0 5.785156 -0.00390625 5.546875 -0.015625 C 5.296875 -0.0234375 5.117188 -0.03125 5.015625 -0.03125 C 4.867188 -0.03125 4.695312 -0.0234375 4.5 -0.015625 C 4.300781 -0.00390625 4.148438 0 4.046875 0 C 4.015625 0 4 -0.015625 4 -0.046875 C 4 -0.0859375 4.015625 -0.109375 4.046875 -0.109375 C 4.191406 -0.109375 4.296875 -0.117188 4.359375 -0.140625 C 4.421875 -0.171875 4.453125 -0.226562 4.453125 -0.3125 C 4.453125 -0.40625 4.394531 -0.566406 4.28125 -0.796875 L 3.703125 -1.9375 L 1.625 -1.9375 L 1.296875 -1.203125 C 1.222656 -1.035156 1.1875 -0.882812 1.1875 -0.75 C 1.1875 -0.539062 1.257812 -0.378906 1.40625 -0.265625 C 1.550781 -0.160156 1.742188 -0.109375 1.984375 -0.109375 C 2.015625 -0.109375 2.03125 -0.0859375 2.03125 -0.046875 C 2.03125 -0.015625 2.015625 0 1.984375 0 C 1.878906 0 1.734375 -0.00390625 1.546875 -0.015625 C 1.328125 -0.0234375 1.140625 -0.03125 0.984375 -0.03125 C 0.828125 -0.03125 0.644531 -0.0234375 0.4375 -0.015625 C 0.238281 -0.00390625 0.0820312 0 -0.03125 0 C -0.0507812 0 -0.0625 -0.015625 -0.0625 -0.046875 C -0.0625 -0.0859375 -0.0507812 -0.109375 -0.03125 -0.109375 C 0.125 -0.109375 0.253906 -0.140625 0.359375 -0.203125 C 0.472656 -0.265625 0.582031 -0.378906 0.6875 -0.546875 C 0.789062 -0.710938 0.914062 -0.957031 1.0625 -1.28125 L 2.90625 -5.328125 C 2.914062 -5.347656 2.941406 -5.359375 2.984375 -5.359375 C 3.023438 -5.359375 3.050781 -5.347656 3.0625 -5.328125 L 5.171875 -1.15625 C 5.367188 -0.757812 5.53125 -0.484375 5.65625 -0.328125 C 5.789062 -0.179688 5.929688 -0.109375 6.078125 -0.109375 Z M 1.734375 -2.171875 L 3.578125 -2.171875 L 2.609375 -4.109375 Z M 1.734375 -2.171875"/></g></g></g><g fill-opacity="1" fill="#4b4646"><g transform="translate(147.15136, 240.818696)"><g><path d="M 5.625 -0.109375 C 5.644531 -0.109375 5.65625 -0.0859375 5.65625 -0.046875 C 5.65625 -0.015625 5.644531 0 5.625 0 L 4.671875 0 C 4.585938 0 4.515625 0 4.453125 0 C 4.390625 0.0078125 4.335938 0.015625 4.296875 0.015625 C 4.203125 0.015625 4.125 -0.00390625 4.0625 -0.046875 C 4 -0.0859375 3.921875 -0.164062 3.828125 -0.28125 C 3.734375 -0.394531 3.566406 -0.613281 3.328125 -0.9375 C 3.296875 -0.96875 3.257812 -1.007812 3.21875 -1.0625 C 3.1875 -1.113281 3.148438 -1.171875 3.109375 -1.234375 L 2 -2.71875 L 1.8125 -2.53125 L 1.8125 -0.6875 C 1.8125 -0.507812 1.820312 -0.378906 1.84375 -0.296875 C 1.875 -0.222656 1.929688 -0.171875 2.015625 -0.140625 C 2.097656 -0.117188 2.226562 -0.109375 2.40625 -0.109375 C 2.4375 -0.109375 2.453125 -0.0859375 2.453125 -0.046875 C 2.453125 -0.015625 2.4375 0 2.40625 0 C 2.226562 0 2.082031 -0.00390625 1.96875 -0.015625 L 0.71875 -0.015625 C 0.601562 -0.00390625 0.445312 0 0.25 0 C 0.238281 0 0.234375 -0.015625 0.234375 -0.046875 C 0.234375 -0.0859375 0.238281 -0.109375 0.25 -0.109375 C 0.4375 -0.109375 0.570312 -0.117188 0.65625 -0.140625 C 0.738281 -0.171875 0.796875 -0.226562 0.828125 -0.3125 C 0.859375 -0.394531 0.875 -0.519531 0.875 -0.6875 L 0.875 -4.609375 C 0.875 -4.773438 0.859375 -4.894531 0.828125 -4.96875 C 0.796875 -5.050781 0.738281 -5.109375 0.65625 -5.140625 C 0.570312 -5.171875 0.441406 -5.1875 0.265625 -5.1875 C 0.253906 -5.1875 0.25 -5.203125 0.25 -5.234375 C 0.25 -5.273438 0.253906 -5.296875 0.265625 -5.296875 L 0.71875 -5.28125 C 0.976562 -5.269531 1.1875 -5.265625 1.34375 -5.265625 C 1.507812 -5.265625 1.722656 -5.269531 1.984375 -5.28125 L 2.40625 -5.296875 C 2.425781 -5.296875 2.4375 -5.273438 2.4375 -5.234375 C 2.4375 -5.203125 2.425781 -5.1875 2.40625 -5.1875 C 2.238281 -5.1875 2.113281 -5.171875 2.03125 -5.140625 C 1.945312 -5.109375 1.890625 -5.050781 1.859375 -4.96875 C 1.828125 -4.882812 1.8125 -4.757812 1.8125 -4.59375 L 1.8125 -2.796875 L 3.40625 -4.421875 C 3.570312 -4.585938 3.65625 -4.738281 3.65625 -4.875 C 3.65625 -4.96875 3.609375 -5.039062 3.515625 -5.09375 C 3.421875 -5.15625 3.296875 -5.1875 3.140625 -5.1875 C 3.117188 -5.1875 3.109375 -5.203125 3.109375 -5.234375 C 3.109375 -5.273438 3.117188 -5.296875 3.140625 -5.296875 L 3.53125 -5.28125 C 3.78125 -5.269531 4.007812 -5.265625 4.21875 -5.265625 C 4.457031 -5.265625 4.703125 -5.269531 4.953125 -5.28125 L 5.328125 -5.296875 C 5.347656 -5.296875 5.359375 -5.273438 5.359375 -5.234375 C 5.359375 -5.203125 5.347656 -5.1875 5.328125 -5.1875 C 5.066406 -5.1875 4.78125 -5.113281 4.46875 -4.96875 C 4.15625 -4.820312 3.875 -4.625 3.625 -4.375 L 2.671875 -3.390625 L 3.921875 -1.703125 C 4.285156 -1.179688 4.554688 -0.8125 4.734375 -0.59375 C 4.921875 -0.375 5.070312 -0.238281 5.1875 -0.1875 C 5.300781 -0.132812 5.445312 -0.109375 5.625 -0.109375 Z M 5.625 -0.109375"/></g></g></g><g fill-opacity="1" fill="#4b4646"><g transform="translate(156.954004, 240.818696)"><g><path d="M 4.203125 -1.34375 C 4.203125 -1.351562 4.210938 -1.359375 4.234375 -1.359375 C 4.253906 -1.359375 4.269531 -1.351562 4.28125 -1.34375 C 4.289062 -1.34375 4.296875 -1.335938 4.296875 -1.328125 C 4.242188 -0.890625 4.21875 -0.488281 4.21875 -0.125 C 4.21875 -0.0820312 4.207031 -0.0507812 4.1875 -0.03125 C 4.175781 -0.0078125 4.144531 0 4.09375 0 L 0.34375 0 C 0.332031 0 0.328125 -0.015625 0.328125 -0.046875 C 0.328125 -0.0859375 0.332031 -0.109375 0.34375 -0.109375 C 0.53125 -0.109375 0.660156 -0.117188 0.734375 -0.140625 C 0.816406 -0.171875 0.875 -0.226562 0.90625 -0.3125 C 0.9375 -0.394531 0.953125 -0.519531 0.953125 -0.6875 L 0.953125 -4.609375 C 0.953125 -4.773438 0.9375 -4.894531 0.90625 -4.96875 C 0.875 -5.050781 0.816406 -5.109375 0.734375 -5.140625 C 0.648438 -5.171875 0.519531 -5.1875 0.34375 -5.1875 C 0.332031 -5.1875 0.328125 -5.203125 0.328125 -5.234375 C 0.328125 -5.273438 0.332031 -5.296875 0.34375 -5.296875 L 3.9375 -5.296875 C 3.988281 -5.296875 4.015625 -5.269531 4.015625 -5.21875 L 4.046875 -4.09375 C 4.046875 -4.082031 4.03125 -4.070312 4 -4.0625 C 3.96875 -4.0625 3.945312 -4.066406 3.9375 -4.078125 C 3.84375 -4.410156 3.6875 -4.65625 3.46875 -4.8125 C 3.257812 -4.96875 2.984375 -5.046875 2.640625 -5.046875 L 2.375 -5.046875 C 2.207031 -5.046875 2.082031 -5.007812 2 -4.9375 C 1.925781 -4.863281 1.890625 -4.75 1.890625 -4.59375 L 1.890625 -2.875 L 2.59375 -2.875 C 2.914062 -2.875 3.164062 -2.925781 3.34375 -3.03125 C 3.519531 -3.144531 3.609375 -3.304688 3.609375 -3.515625 C 3.609375 -3.535156 3.625 -3.546875 3.65625 -3.546875 C 3.6875 -3.546875 3.703125 -3.535156 3.703125 -3.515625 L 3.6875 -2.75 L 3.703125 -2.34375 C 3.710938 -2.15625 3.71875 -2.003906 3.71875 -1.890625 C 3.71875 -1.878906 3.695312 -1.875 3.65625 -1.875 C 3.625 -1.875 3.609375 -1.878906 3.609375 -1.890625 C 3.609375 -2.117188 3.519531 -2.300781 3.34375 -2.4375 C 3.164062 -2.570312 2.910156 -2.640625 2.578125 -2.640625 L 1.890625 -2.640625 L 1.890625 -0.71875 C 1.890625 -0.550781 1.921875 -0.425781 1.984375 -0.34375 C 2.046875 -0.269531 2.144531 -0.234375 2.28125 -0.234375 L 2.5625 -0.234375 C 3 -0.234375 3.347656 -0.320312 3.609375 -0.5 C 3.878906 -0.6875 4.078125 -0.96875 4.203125 -1.34375 Z M 4.203125 -1.34375"/></g></g></g><g fill-opacity="1" fill="#4b4646"><g transform="translate(165.884737, 240.818696)"><g><path d="M 0.265625 -1.296875 C 0.253906 -1.296875 0.242188 -1.320312 0.234375 -1.375 C 0.234375 -1.4375 0.234375 -1.5 0.234375 -1.5625 C 0.234375 -1.695312 0.238281 -1.765625 0.25 -1.765625 L 2.46875 -2.15625 C 2.476562 -2.164062 2.484375 -2.144531 2.484375 -2.09375 C 2.492188 -2.050781 2.5 -2 2.5 -1.9375 C 2.5 -1.882812 2.492188 -1.832031 2.484375 -1.78125 C 2.484375 -1.726562 2.476562 -1.703125 2.46875 -1.703125 Z M 0.265625 -1.296875"/></g></g></g><g fill-opacity="1" fill="#4b4646"><g transform="translate(172.876933, 240.818696)"><g><path d="M 4.828125 -4.203125 C 4.828125 -4.515625 4.757812 -4.753906 4.625 -4.921875 C 4.488281 -5.097656 4.296875 -5.1875 4.046875 -5.1875 C 4.035156 -5.1875 4.03125 -5.203125 4.03125 -5.234375 C 4.03125 -5.273438 4.035156 -5.296875 4.046875 -5.296875 L 4.453125 -5.28125 C 4.671875 -5.269531 4.84375 -5.265625 4.96875 -5.265625 C 5.070312 -5.265625 5.226562 -5.269531 5.4375 -5.28125 L 5.828125 -5.296875 C 5.835938 -5.296875 5.84375 -5.273438 5.84375 -5.234375 C 5.84375 -5.203125 5.835938 -5.1875 5.828125 -5.1875 C 5.609375 -5.1875 5.4375 -5.097656 5.3125 -4.921875 C 5.1875 -4.753906 5.125 -4.515625 5.125 -4.203125 L 5.125 -1.859375 C 5.125 -1.460938 5.035156 -1.113281 4.859375 -0.8125 C 4.679688 -0.507812 4.429688 -0.273438 4.109375 -0.109375 C 3.796875 0.046875 3.429688 0.125 3.015625 0.125 C 2.597656 0.125 2.226562 0.046875 1.90625 -0.109375 C 1.582031 -0.273438 1.328125 -0.507812 1.140625 -0.8125 C 0.960938 -1.113281 0.875 -1.46875 0.875 -1.875 L 0.875 -4.609375 C 0.875 -4.773438 0.859375 -4.894531 0.828125 -4.96875 C 0.796875 -5.050781 0.738281 -5.109375 0.65625 -5.140625 C 0.570312 -5.171875 0.441406 -5.1875 0.265625 -5.1875 C 0.253906 -5.1875 0.25 -5.203125 0.25 -5.234375 C 0.25 -5.273438 0.253906 -5.296875 0.265625 -5.296875 L 0.71875 -5.28125 C 0.976562 -5.269531 1.1875 -5.265625 1.34375 -5.265625 C 1.507812 -5.265625 1.722656 -5.269531 1.984375 -5.28125 L 2.40625 -5.296875 C 2.425781 -5.296875 2.4375 -5.273438 2.4375 -5.234375 C 2.4375 -5.203125 2.425781 -5.1875 2.40625 -5.1875 C 2.238281 -5.1875 2.113281 -5.171875 2.03125 -5.140625 C 1.945312 -5.109375 1.890625 -5.050781 1.859375 -4.96875 C 1.828125 -4.882812 1.8125 -4.757812 1.8125 -4.59375 L 1.8125 -2.171875 C 1.8125 -1.492188 1.941406 -0.992188 2.203125 -0.671875 C 2.472656 -0.347656 2.851562 -0.1875 3.34375 -0.1875 C 3.8125 -0.1875 4.175781 -0.328125 4.4375 -0.609375 C 4.695312 -0.898438 4.828125 -1.3125 4.828125 -1.84375 Z M 4.828125 -4.203125"/></g></g></g><g fill-opacity="1" fill="#4b4646"><g transform="translate(183.085903, 240.818696)"><g><path d="M 1.828125 -0.71875 C 1.828125 -0.539062 1.847656 -0.410156 1.890625 -0.328125 C 1.929688 -0.242188 2.003906 -0.1875 2.109375 -0.15625 C 2.222656 -0.125 2.398438 -0.109375 2.640625 -0.109375 C 2.660156 -0.109375 2.671875 -0.0859375 2.671875 -0.046875 C 2.671875 -0.015625 2.660156 0 2.640625 0 C 2.410156 0 2.226562 -0.00390625 2.09375 -0.015625 L 0.75 -0.015625 C 0.632812 -0.00390625 0.476562 0 0.28125 0 C 0.269531 0 0.265625 -0.015625 0.265625 -0.046875 C 0.265625 -0.0859375 0.269531 -0.109375 0.28125 -0.109375 C 0.46875 -0.109375 0.597656 -0.117188 0.671875 -0.140625 C 0.753906 -0.171875 0.8125 -0.226562 0.84375 -0.3125 C 0.875 -0.394531 0.890625 -0.519531 0.890625 -0.6875 L 0.890625 -4.609375 C 0.890625 -4.773438 0.875 -4.894531 0.84375 -4.96875 C 0.8125 -5.050781 0.753906 -5.109375 0.671875 -5.140625 C 0.585938 -5.171875 0.457031 -5.1875 0.28125 -5.1875 C 0.269531 -5.1875 0.265625 -5.203125 0.265625 -5.234375 C 0.265625 -5.273438 0.269531 -5.296875 0.28125 -5.296875 L 0.734375 -5.28125 C 0.992188 -5.269531 1.203125 -5.265625 1.359375 -5.265625 C 1.492188 -5.265625 1.65625 -5.273438 1.84375 -5.296875 C 1.914062 -5.296875 2.003906 -5.296875 2.109375 -5.296875 C 2.222656 -5.304688 2.351562 -5.3125 2.5 -5.3125 C 3.082031 -5.3125 3.539062 -5.191406 3.875 -4.953125 C 4.207031 -4.710938 4.375 -4.34375 4.375 -3.84375 C 4.375 -3.488281 4.28125 -3.191406 4.09375 -2.953125 C 3.914062 -2.710938 3.679688 -2.53125 3.390625 -2.40625 C 3.109375 -2.28125 2.820312 -2.21875 2.53125 -2.21875 C 2.375 -2.21875 2.238281 -2.234375 2.125 -2.265625 C 2.113281 -2.265625 2.109375 -2.273438 2.109375 -2.296875 C 2.109375 -2.316406 2.113281 -2.332031 2.125 -2.34375 C 2.132812 -2.363281 2.144531 -2.375 2.15625 -2.375 C 2.238281 -2.351562 2.332031 -2.34375 2.4375 -2.34375 C 2.695312 -2.34375 2.910156 -2.460938 3.078125 -2.703125 C 3.253906 -2.941406 3.34375 -3.285156 3.34375 -3.734375 C 3.34375 -4.179688 3.25 -4.523438 3.0625 -4.765625 C 2.875 -5.003906 2.597656 -5.125 2.234375 -5.125 C 2.078125 -5.125 1.96875 -5.085938 1.90625 -5.015625 C 1.851562 -4.941406 1.828125 -4.800781 1.828125 -4.59375 Z M 1.828125 -0.71875"/></g></g></g><g fill-opacity="1" fill="#4b4646"><g transform="translate(192.025093, 240.818696)"><g/></g></g><g fill-opacity="1" fill="#4b4646"><g transform="translate(198.263888, 240.818696)"><g><path d="M 6.078125 -0.109375 C 6.097656 -0.109375 6.109375 -0.0859375 6.109375 -0.046875 C 6.109375 -0.015625 6.097656 0 6.078125 0 C 5.960938 0 5.785156 -0.00390625 5.546875 -0.015625 C 5.296875 -0.0234375 5.117188 -0.03125 5.015625 -0.03125 C 4.867188 -0.03125 4.695312 -0.0234375 4.5 -0.015625 C 4.300781 -0.00390625 4.148438 0 4.046875 0 C 4.015625 0 4 -0.015625 4 -0.046875 C 4 -0.0859375 4.015625 -0.109375 4.046875 -0.109375 C 4.191406 -0.109375 4.296875 -0.117188 4.359375 -0.140625 C 4.421875 -0.171875 4.453125 -0.226562 4.453125 -0.3125 C 4.453125 -0.40625 4.394531 -0.566406 4.28125 -0.796875 L 3.703125 -1.9375 L 1.625 -1.9375 L 1.296875 -1.203125 C 1.222656 -1.035156 1.1875 -0.882812 1.1875 -0.75 C 1.1875 -0.539062 1.257812 -0.378906 1.40625 -0.265625 C 1.550781 -0.160156 1.742188 -0.109375 1.984375 -0.109375 C 2.015625 -0.109375 2.03125 -0.0859375 2.03125 -0.046875 C 2.03125 -0.015625 2.015625 0 1.984375 0 C 1.878906 0 1.734375 -0.00390625 1.546875 -0.015625 C 1.328125 -0.0234375 1.140625 -0.03125 0.984375 -0.03125 C 0.828125 -0.03125 0.644531 -0.0234375 0.4375 -0.015625 C 0.238281 -0.00390625 0.0820312 0 -0.03125 0 C -0.0507812 0 -0.0625 -0.015625 -0.0625 -0.046875 C -0.0625 -0.0859375 -0.0507812 -0.109375 -0.03125 -0.109375 C 0.125 -0.109375 0.253906 -0.140625 0.359375 -0.203125 C 0.472656 -0.265625 0.582031 -0.378906 0.6875 -0.546875 C 0.789062 -0.710938 0.914062 -0.957031 1.0625 -1.28125 L 2.90625 -5.328125 C 2.914062 -5.347656 2.941406 -5.359375 2.984375 -5.359375 C 3.023438 -5.359375 3.050781 -5.347656 3.0625 -5.328125 L 5.171875 -1.15625 C 5.367188 -0.757812 5.53125 -0.484375 5.65625 -0.328125 C 5.789062 -0.179688 5.929688 -0.109375 6.078125 -0.109375 Z M 1.734375 -2.171875 L 3.578125 -2.171875 L 2.609375 -4.109375 Z M 1.734375 -2.171875"/></g></g></g><g fill-opacity="1" fill="#4b4646"><g transform="translate(208.582898, 240.818696)"><g><path d="M 6 -0.109375 C 6.007812 -0.109375 6.015625 -0.0859375 6.015625 -0.046875 C 6.015625 -0.015625 6.007812 0 6 0 L 4.484375 0 C 4.359375 0 4.125 -0.222656 3.78125 -0.671875 C 3.445312 -1.117188 3.039062 -1.75 2.5625 -2.5625 C 2.519531 -2.550781 2.457031 -2.546875 2.375 -2.546875 C 2.15625 -2.546875 2 -2.550781 1.90625 -2.5625 L 1.90625 -0.6875 C 1.90625 -0.507812 1.914062 -0.378906 1.9375 -0.296875 C 1.96875 -0.222656 2.023438 -0.171875 2.109375 -0.140625 C 2.191406 -0.117188 2.320312 -0.109375 2.5 -0.109375 C 2.519531 -0.109375 2.53125 -0.0859375 2.53125 -0.046875 C 2.53125 -0.015625 2.519531 0 2.5 0 C 2.320312 0 2.175781 -0.00390625 2.0625 -0.015625 L 0.796875 -0.015625 C 0.691406 -0.00390625 0.539062 0 0.34375 0 C 0.332031 0 0.328125 -0.015625 0.328125 -0.046875 C 0.328125 -0.0859375 0.332031 -0.109375 0.34375 -0.109375 C 0.53125 -0.109375 0.660156 -0.117188 0.734375 -0.140625 C 0.816406 -0.171875 0.875 -0.226562 0.90625 -0.3125 C 0.9375 -0.394531 0.953125 -0.519531 0.953125 -0.6875 L 0.953125 -4.609375 C 0.953125 -4.773438 0.9375 -4.894531 0.90625 -4.96875 C 0.882812 -5.050781 0.832031 -5.109375 0.75 -5.140625 C 0.664062 -5.171875 0.535156 -5.1875 0.359375 -5.1875 C 0.347656 -5.1875 0.34375 -5.203125 0.34375 -5.234375 C 0.34375 -5.273438 0.347656 -5.296875 0.359375 -5.296875 L 0.796875 -5.28125 C 1.054688 -5.269531 1.265625 -5.265625 1.421875 -5.265625 C 1.609375 -5.265625 1.8125 -5.273438 2.03125 -5.296875 C 2.101562 -5.296875 2.191406 -5.296875 2.296875 -5.296875 C 2.410156 -5.304688 2.535156 -5.3125 2.671875 -5.3125 C 3.179688 -5.3125 3.578125 -5.21875 3.859375 -5.03125 C 4.140625 -4.84375 4.28125 -4.582031 4.28125 -4.25 C 4.28125 -3.9375 4.195312 -3.648438 4.03125 -3.390625 C 3.863281 -3.140625 3.640625 -2.941406 3.359375 -2.796875 C 3.804688 -2.117188 4.179688 -1.585938 4.484375 -1.203125 C 4.796875 -0.816406 5.066406 -0.535156 5.296875 -0.359375 C 5.535156 -0.191406 5.769531 -0.109375 6 -0.109375 Z M 1.90625 -2.796875 C 2.039062 -2.773438 2.203125 -2.765625 2.390625 -2.765625 C 2.722656 -2.765625 2.957031 -2.851562 3.09375 -3.03125 C 3.238281 -3.21875 3.3125 -3.515625 3.3125 -3.921875 C 3.3125 -4.378906 3.242188 -4.695312 3.109375 -4.875 C 2.972656 -5.050781 2.78125 -5.140625 2.53125 -5.140625 C 2.300781 -5.140625 2.140625 -5.097656 2.046875 -5.015625 C 1.953125 -4.929688 1.90625 -4.789062 1.90625 -4.59375 Z M 1.90625 -2.796875"/></g></g></g><g fill-opacity="1" fill="#4b4646"><g transform="translate(218.749533, 240.818696)"><g><path d="M 1.875 -5.09375 C 1.207031 -5.09375 0.726562 -4.65625 0.4375 -3.78125 C 0.425781 -3.769531 0.40625 -3.765625 0.375 -3.765625 C 0.351562 -3.765625 0.34375 -3.773438 0.34375 -3.796875 C 0.363281 -4.015625 0.382812 -4.300781 0.40625 -4.65625 C 0.4375 -5.019531 0.453125 -5.296875 0.453125 -5.484375 C 0.453125 -5.503906 0.46875 -5.515625 0.5 -5.515625 C 0.53125 -5.515625 0.546875 -5.503906 0.546875 -5.484375 C 0.546875 -5.359375 0.707031 -5.296875 1.03125 -5.296875 C 1.519531 -5.273438 2.085938 -5.265625 2.734375 -5.265625 C 3.066406 -5.265625 3.421875 -5.269531 3.796875 -5.28125 L 4.375 -5.296875 C 4.582031 -5.296875 4.734375 -5.304688 4.828125 -5.328125 C 4.929688 -5.359375 5 -5.414062 5.03125 -5.5 C 5.03125 -5.519531 5.046875 -5.53125 5.078125 -5.53125 C 5.109375 -5.53125 5.125 -5.519531 5.125 -5.5 C 5.113281 -5.332031 5.097656 -5.0625 5.078125 -4.6875 C 5.054688 -4.3125 5.046875 -4.015625 5.046875 -3.796875 C 5.046875 -3.773438 5.03125 -3.765625 5 -3.765625 C 4.976562 -3.765625 4.960938 -3.773438 4.953125 -3.796875 C 4.867188 -4.234375 4.707031 -4.554688 4.46875 -4.765625 C 4.238281 -4.984375 3.957031 -5.09375 3.625 -5.09375 C 3.457031 -5.09375 3.347656 -5.054688 3.296875 -4.984375 C 3.242188 -4.921875 3.21875 -4.789062 3.21875 -4.59375 L 3.21875 -0.6875 C 3.21875 -0.507812 3.234375 -0.378906 3.265625 -0.296875 C 3.296875 -0.222656 3.359375 -0.171875 3.453125 -0.140625 C 3.554688 -0.117188 3.710938 -0.109375 3.921875 -0.109375 C 3.941406 -0.109375 3.953125 -0.0859375 3.953125 -0.046875 C 3.953125 -0.015625 3.941406 0 3.921875 0 C 3.710938 0 3.550781 -0.00390625 3.4375 -0.015625 L 2.046875 -0.015625 C 1.929688 -0.00390625 1.769531 0 1.5625 0 C 1.539062 0 1.53125 -0.015625 1.53125 -0.046875 C 1.53125 -0.0859375 1.539062 -0.109375 1.5625 -0.109375 C 1.757812 -0.109375 1.90625 -0.117188 2 -0.140625 C 2.101562 -0.171875 2.171875 -0.226562 2.203125 -0.3125 C 2.242188 -0.394531 2.265625 -0.519531 2.265625 -0.6875 L 2.265625 -4.609375 C 2.265625 -4.796875 2.238281 -4.921875 2.1875 -4.984375 C 2.144531 -5.054688 2.039062 -5.09375 1.875 -5.09375 Z M 1.875 -5.09375"/></g></g></g><g fill-opacity="1" fill="#4b4646"><g transform="translate(228.450585, 240.818696)"><g><path d="M 1.921875 -0.6875 C 1.921875 -0.507812 1.929688 -0.378906 1.953125 -0.296875 C 1.984375 -0.222656 2.039062 -0.171875 2.125 -0.140625 C 2.207031 -0.117188 2.34375 -0.109375 2.53125 -0.109375 C 2.539062 -0.109375 2.546875 -0.0859375 2.546875 -0.046875 C 2.546875 -0.015625 2.539062 0 2.53125 0 C 2.34375 0 2.191406 -0.00390625 2.078125 -0.015625 L 0.8125 -0.015625 C 0.695312 -0.00390625 0.546875 0 0.359375 0 C 0.347656 0 0.34375 -0.015625 0.34375 -0.046875 C 0.34375 -0.0859375 0.347656 -0.109375 0.359375 -0.109375 C 0.535156 -0.109375 0.664062 -0.117188 0.75 -0.140625 C 0.832031 -0.171875 0.890625 -0.226562 0.921875 -0.3125 C 0.953125 -0.394531 0.96875 -0.519531 0.96875 -0.6875 L 0.96875 -4.609375 C 0.96875 -4.773438 0.953125 -4.894531 0.921875 -4.96875 C 0.890625 -5.050781 0.832031 -5.109375 0.75 -5.140625 C 0.664062 -5.171875 0.535156 -5.1875 0.359375 -5.1875 C 0.347656 -5.1875 0.34375 -5.203125 0.34375 -5.234375 C 0.34375 -5.273438 0.347656 -5.296875 0.359375 -5.296875 L 0.8125 -5.28125 C 1.070312 -5.269531 1.28125 -5.265625 1.4375 -5.265625 C 1.613281 -5.265625 1.832031 -5.269531 2.09375 -5.28125 L 2.53125 -5.296875 C 2.539062 -5.296875 2.546875 -5.273438 2.546875 -5.234375 C 2.546875 -5.203125 2.539062 -5.1875 2.53125 -5.1875 C 2.351562 -5.1875 2.21875 -5.171875 2.125 -5.140625 C 2.039062 -5.109375 1.984375 -5.050781 1.953125 -4.96875 C 1.929688 -4.882812 1.921875 -4.757812 1.921875 -4.59375 Z M 1.921875 -0.6875"/></g></g></g><g fill-opacity="1" fill="#4b4646"><g transform="translate(235.603627, 240.818696)"><g><path d="M 1.46875 -4.4375 C 1.46875 -4.226562 1.519531 -4.046875 1.625 -3.890625 C 1.726562 -3.734375 1.859375 -3.59375 2.015625 -3.46875 C 2.171875 -3.351562 2.378906 -3.210938 2.640625 -3.046875 C 2.921875 -2.867188 3.144531 -2.710938 3.3125 -2.578125 C 3.476562 -2.441406 3.617188 -2.273438 3.734375 -2.078125 C 3.859375 -1.878906 3.921875 -1.65625 3.921875 -1.40625 C 3.921875 -1.113281 3.84375 -0.851562 3.6875 -0.625 C 3.53125 -0.394531 3.3125 -0.210938 3.03125 -0.078125 C 2.75 0.046875 2.4375 0.109375 2.09375 0.109375 C 1.832031 0.109375 1.5625 0.0703125 1.28125 0 C 1.007812 -0.0703125 0.828125 -0.148438 0.734375 -0.234375 C 0.703125 -0.253906 0.679688 -0.273438 0.671875 -0.296875 C 0.660156 -0.316406 0.65625 -0.347656 0.65625 -0.390625 L 0.625 -1.75 C 0.625 -1.769531 0.640625 -1.78125 0.671875 -1.78125 C 0.703125 -1.789062 0.71875 -1.785156 0.71875 -1.765625 C 0.882812 -1.421875 1.03125 -1.140625 1.15625 -0.921875 C 1.289062 -0.703125 1.453125 -0.507812 1.640625 -0.34375 C 1.835938 -0.1875 2.0625 -0.109375 2.3125 -0.109375 C 2.539062 -0.109375 2.726562 -0.164062 2.875 -0.28125 C 3.019531 -0.40625 3.09375 -0.617188 3.09375 -0.921875 C 3.09375 -1.160156 3.035156 -1.375 2.921875 -1.5625 C 2.816406 -1.75 2.679688 -1.90625 2.515625 -2.03125 C 2.359375 -2.164062 2.144531 -2.320312 1.875 -2.5 C 1.601562 -2.675781 1.390625 -2.828125 1.234375 -2.953125 C 1.085938 -3.078125 0.957031 -3.226562 0.84375 -3.40625 C 0.738281 -3.582031 0.6875 -3.785156 0.6875 -4.015625 C 0.6875 -4.316406 0.773438 -4.570312 0.953125 -4.78125 C 1.128906 -4.988281 1.351562 -5.140625 1.625 -5.234375 C 1.894531 -5.335938 2.175781 -5.390625 2.46875 -5.390625 C 2.664062 -5.390625 2.863281 -5.367188 3.0625 -5.328125 C 3.269531 -5.296875 3.4375 -5.253906 3.5625 -5.203125 C 3.613281 -5.179688 3.644531 -5.15625 3.65625 -5.125 C 3.675781 -5.101562 3.6875 -5.070312 3.6875 -5.03125 L 3.6875 -3.78125 C 3.6875 -3.769531 3.671875 -3.757812 3.640625 -3.75 C 3.617188 -3.738281 3.601562 -3.742188 3.59375 -3.765625 L 3.53125 -3.921875 C 3.382812 -4.273438 3.21875 -4.578125 3.03125 -4.828125 C 2.84375 -5.078125 2.582031 -5.203125 2.25 -5.203125 C 2.019531 -5.203125 1.832031 -5.132812 1.6875 -5 C 1.539062 -4.875 1.46875 -4.6875 1.46875 -4.4375 Z M 1.46875 -4.4375"/></g></g></g><g fill-opacity="1" fill="#4b4646"><g transform="translate(244.221136, 240.818696)"><g><path d="M 1.875 -5.09375 C 1.207031 -5.09375 0.726562 -4.65625 0.4375 -3.78125 C 0.425781 -3.769531 0.40625 -3.765625 0.375 -3.765625 C 0.351562 -3.765625 0.34375 -3.773438 0.34375 -3.796875 C 0.363281 -4.015625 0.382812 -4.300781 0.40625 -4.65625 C 0.4375 -5.019531 0.453125 -5.296875 0.453125 -5.484375 C 0.453125 -5.503906 0.46875 -5.515625 0.5 -5.515625 C 0.53125 -5.515625 0.546875 -5.503906 0.546875 -5.484375 C 0.546875 -5.359375 0.707031 -5.296875 1.03125 -5.296875 C 1.519531 -5.273438 2.085938 -5.265625 2.734375 -5.265625 C 3.066406 -5.265625 3.421875 -5.269531 3.796875 -5.28125 L 4.375 -5.296875 C 4.582031 -5.296875 4.734375 -5.304688 4.828125 -5.328125 C 4.929688 -5.359375 5 -5.414062 5.03125 -5.5 C 5.03125 -5.519531 5.046875 -5.53125 5.078125 -5.53125 C 5.109375 -5.53125 5.125 -5.519531 5.125 -5.5 C 5.113281 -5.332031 5.097656 -5.0625 5.078125 -4.6875 C 5.054688 -4.3125 5.046875 -4.015625 5.046875 -3.796875 C 5.046875 -3.773438 5.03125 -3.765625 5 -3.765625 C 4.976562 -3.765625 4.960938 -3.773438 4.953125 -3.796875 C 4.867188 -4.234375 4.707031 -4.554688 4.46875 -4.765625 C 4.238281 -4.984375 3.957031 -5.09375 3.625 -5.09375 C 3.457031 -5.09375 3.347656 -5.054688 3.296875 -4.984375 C 3.242188 -4.921875 3.21875 -4.789062 3.21875 -4.59375 L 3.21875 -0.6875 C 3.21875 -0.507812 3.234375 -0.378906 3.265625 -0.296875 C 3.296875 -0.222656 3.359375 -0.171875 3.453125 -0.140625 C 3.554688 -0.117188 3.710938 -0.109375 3.921875 -0.109375 C 3.941406 -0.109375 3.953125 -0.0859375 3.953125 -0.046875 C 3.953125 -0.015625 3.941406 0 3.921875 0 C 3.710938 0 3.550781 -0.00390625 3.4375 -0.015625 L 2.046875 -0.015625 C 1.929688 -0.00390625 1.769531 0 1.5625 0 C 1.539062 0 1.53125 -0.015625 1.53125 -0.046875 C 1.53125 -0.0859375 1.539062 -0.109375 1.5625 -0.109375 C 1.757812 -0.109375 1.90625 -0.117188 2 -0.140625 C 2.101562 -0.171875 2.171875 -0.226562 2.203125 -0.3125 C 2.242188 -0.394531 2.265625 -0.519531 2.265625 -0.6875 L 2.265625 -4.609375 C 2.265625 -4.796875 2.238281 -4.921875 2.1875 -4.984375 C 2.144531 -5.054688 2.039062 -5.09375 1.875 -5.09375 Z M 1.875 -5.09375"/></g></g></g></svg>