<svg width="15" height="14" viewBox="0 0 15 14" fill="none" xmlns="http://www.w3.org/2000/svg">
<g clip-path="url(#clip0_4014_1211)">
<path d="M14.3374 6.85C14.3374 6.96162 14.3344 7.07324 14.3288 7.18485C14.3228 7.29647 14.3142 7.40773 14.303 7.51899C14.2914 7.63026 14.2769 7.74081 14.2597 7.85136C14.2425 7.96191 14.2224 8.0721 14.1996 8.18159C14.1768 8.29107 14.151 8.39985 14.1227 8.50826C14.0939 8.61668 14.0626 8.72439 14.0286 8.83103C13.9946 8.93802 13.9576 9.04395 13.9184 9.14917C13.8789 9.25439 13.8367 9.35854 13.7915 9.46199C13.7467 9.56507 13.6993 9.66709 13.6492 9.76804C13.5988 9.869 13.5462 9.96888 13.4909 10.0673C13.4357 10.1658 13.3778 10.2629 13.3173 10.3588C13.2572 10.4545 13.1945 10.549 13.1291 10.6418C13.0642 10.7346 12.9966 10.8259 12.9268 10.9155C12.8566 11.0054 12.7845 11.0932 12.7102 11.1796C12.6355 11.266 12.559 11.3506 12.4802 11.4334C12.4014 11.5162 12.3208 11.5969 12.2375 11.6758C12.1546 11.7551 12.0699 11.8319 11.9829 11.9069C11.8959 11.9819 11.807 12.0548 11.7163 12.1259C11.6256 12.1966 11.5334 12.2652 11.4389 12.332C11.3448 12.3985 11.2488 12.4629 11.1514 12.5247C11.0539 12.5869 10.9546 12.6466 10.8542 12.7039C10.7534 12.7614 10.6515 12.8165 10.548 12.8692C10.4446 12.9218 10.3397 12.9719 10.2337 13.0199C10.1276 13.0675 10.0205 13.1126 9.91219 13.1553C9.80354 13.1983 9.69414 13.2385 9.58362 13.2762C9.47311 13.3138 9.36184 13.3487 9.24946 13.381C9.13745 13.4134 9.02432 13.4432 8.91044 13.4706C8.79656 13.4976 8.68231 13.5222 8.56731 13.5438C8.45232 13.5655 8.33657 13.5847 8.22045 13.6011C8.10434 13.6174 7.98822 13.6313 7.87135 13.6423C7.75449 13.653 7.63763 13.6611 7.52039 13.6668C7.40315 13.6722 7.28591 13.675 7.16868 13.675C7.05144 13.675 6.9342 13.6722 6.81696 13.6668C6.69972 13.6611 6.58286 13.653 6.466 13.6423C6.34913 13.6313 6.23301 13.6174 6.1169 13.6011C6.00078 13.5847 5.88503 13.5655 5.77004 13.5438C5.65504 13.5222 5.54079 13.4976 5.42691 13.4706C5.31303 13.4432 5.1999 13.4134 5.08789 13.381C4.97551 13.3487 4.86424 13.3135 4.75373 13.2762C4.64321 13.2385 4.53381 13.1983 4.42516 13.1553C4.31689 13.1126 4.20973 13.0675 4.10369 13.0199C3.99766 12.9719 3.89274 12.9218 3.78932 12.8692C3.68589 12.8165 3.58396 12.7614 3.48315 12.7039C3.38272 12.6466 3.2834 12.5869 3.18595 12.5247C3.0885 12.4629 2.99255 12.3985 2.89846 12.332C2.804 12.2652 2.71178 12.1966 2.62105 12.1259C2.53032 12.0548 2.44146 11.9819 2.35446 11.9069C2.26747 11.8319 2.18271 11.7551 2.09982 11.6758C2.01656 11.5969 1.93592 11.5162 1.85713 11.4334C1.77835 11.3506 1.70181 11.266 1.62714 11.1796C1.55284 11.0932 1.48078 11.0054 1.41059 10.9155C1.34077 10.8259 1.27319 10.7346 1.20822 10.6418C1.14288 10.549 1.08016 10.4545 1.02004 10.3588C0.959557 10.2629 0.901685 10.1658 0.846426 10.0673C0.791168 9.96888 0.738523 9.869 0.688118 9.76804C0.638087 9.66709 0.590669 9.56507 0.545865 9.46199C0.500687 9.35854 0.458497 9.25439 0.418919 9.14917C0.379342 9.04395 0.342752 8.93802 0.308776 8.83103C0.274799 8.72439 0.243436 8.61668 0.214687 8.50826C0.186311 8.39985 0.160549 8.29107 0.137773 8.18159C0.114997 8.0721 0.0948356 7.96191 0.0776607 7.85136C0.0604856 7.74081 0.0459244 7.63026 0.0343499 7.51899C0.0231489 7.40773 0.0145614 7.29647 0.00858748 7.18485C0.00298695 7.07324 0 6.96162 0 6.85C0 6.73838 0.00298695 6.62677 0.00858748 6.51515C0.0145614 6.40353 0.0231489 6.29227 0.0343499 6.18101C0.0459244 6.06975 0.0604856 5.9592 0.0776607 5.84865C0.0948356 5.7381 0.114997 5.6279 0.137773 5.51842C0.160549 5.40893 0.186311 5.30016 0.214687 5.19174C0.243436 5.08332 0.274799 4.97561 0.308776 4.86897C0.342752 4.76198 0.379342 4.65605 0.418919 4.55083C0.458497 4.44561 0.500687 4.34146 0.545865 4.23802C0.590669 4.13493 0.638087 4.03291 0.688118 3.93196C0.738523 3.83101 0.791168 3.73112 0.846426 3.63265C0.901685 3.53419 0.959557 3.43715 1.02004 3.34117C1.08016 3.24555 1.14288 3.15099 1.20822 3.05822C1.27319 2.96544 1.34077 2.87408 1.41059 2.78451C1.48078 2.69457 1.55284 2.60677 1.62714 2.52039C1.70181 2.43401 1.77835 2.34941 1.85713 2.26659C1.93592 2.18376 2.01656 2.10307 2.09982 2.02416C2.18271 1.94489 2.26747 1.86811 2.35446 1.7931C2.44146 1.7181 2.53032 1.64523 2.62105 1.57413C2.71178 1.5034 2.804 1.43479 2.89846 1.36796C2.99255 1.30149 3.0885 1.23715 3.18595 1.1753C3.2834 1.11309 3.38272 1.05337 3.48315 0.996142C3.58396 0.938556 3.68589 0.883459 3.78932 0.830849C3.89274 0.77824 3.99766 0.728119 4.10369 0.68013C4.20973 0.632498 4.31689 0.587353 4.42516 0.544697C4.53381 0.501685 4.64321 0.461517 4.75373 0.423837C4.86424 0.386158 4.97551 0.351322 5.08789 0.318974C5.1999 0.286627 5.31303 0.256767 5.42691 0.229396C5.54079 0.20238 5.65504 0.177853 5.77004 0.156169C5.88503 0.134486 6.00078 0.115291 6.1169 0.098939C6.23301 0.0825874 6.34913 0.0687242 6.466 0.0577046C6.58286 0.0470406 6.69972 0.0388648 6.81696 0.0331773C6.9342 0.0278453 7.05144 0.0250015 7.16868 0.0250015C7.28591 0.0250015 7.40315 0.0278453 7.52039 0.0331773C7.63763 0.0388648 7.75449 0.0470406 7.87135 0.0577046C7.98822 0.0687242 8.10434 0.0825874 8.22045 0.098939C8.33657 0.115291 8.45232 0.134486 8.56731 0.156169C8.68231 0.177853 8.79656 0.20238 8.91044 0.229396C9.02432 0.256767 9.13745 0.286627 9.24946 0.318974C9.36184 0.351322 9.47311 0.386158 9.58362 0.423837C9.69414 0.461517 9.80354 0.501685 9.91219 0.544697C10.0205 0.587353 10.1276 0.632498 10.2337 0.68013C10.3397 0.728119 10.4446 0.77824 10.548 0.830849C10.6515 0.883459 10.7534 0.938556 10.8542 0.996142C10.9546 1.05337 11.0539 1.11309 11.1514 1.1753C11.2488 1.23715 11.3448 1.30149 11.4389 1.36796C11.5334 1.43479 11.6256 1.5034 11.7163 1.57413C11.807 1.64523 11.8959 1.7181 11.9829 1.7931C12.0699 1.86811 12.1546 1.94489 12.2375 2.02416C12.3208 2.10307 12.4014 2.18376 12.4802 2.26659C12.559 2.34941 12.6355 2.43401 12.7102 2.52039C12.7845 2.60677 12.8566 2.69457 12.9268 2.78451C12.9966 2.87408 13.0642 2.96544 13.1291 3.05822C13.1945 3.15099 13.2572 3.24555 13.3173 3.34117C13.3778 3.43715 13.4357 3.53419 13.4909 3.63265C13.5462 3.73112 13.5988 3.83101 13.6492 3.93196C13.6993 4.03291 13.7467 4.13493 13.7915 4.23802C13.8367 4.34146 13.8789 4.44561 13.9184 4.55083C13.958 4.65605 13.9946 4.76198 14.0286 4.86897C14.0626 4.97561 14.0939 5.08332 14.1227 5.19174C14.151 5.30016 14.1768 5.40893 14.1996 5.51842C14.2224 5.6279 14.2425 5.7381 14.2597 5.84865C14.2769 5.9592 14.2914 6.06975 14.303 6.18101C14.3142 6.29227 14.3228 6.40353 14.3288 6.51515C14.3344 6.62677 14.3374 6.73838 14.3374 6.85Z" fill="#3A2D28"/>
<path d="M6.66835 7.2787C5.48477 6.19914 5.66809 5.69118 5.66809 5.69118C6.1516 5.24684 6.08514 4.65961 6.08514 4.65961C5.83499 4.34217 5.58483 4.02474 5.33467 3.7073C5.33467 3.7073 5.00126 3.1837 4.48451 3.46914C3.10081 4.24691 3.53429 5.58027 3.53429 5.58027C3.53429 5.59627 3.91774 6.7231 5.66809 8.27863C7.41882 9.8498 8.68566 10.2625 8.68566 10.2625C8.68566 10.2625 10.1194 10.7068 10.803 9.4531C11.0532 8.97677 10.4864 8.61171 10.4864 8.61171C10.1362 8.34191 9.78597 8.0881 9.43613 7.83394C9.43613 7.83394 8.80252 7.73868 8.36904 8.19901C8.36904 8.215 7.8355 8.3579 6.66835 7.2787Z" fill="#A48374"/>
<path d="M9.04169 18.624L-47.401 -24.6156C-47.4375 -24.376 -47.5208 -24.1729 -47.5208 -23.9333V52.1865C-47.5208 55.1031 -45.1614 57.4625 -42.2396 57.4625H60.3177C63.2396 57.4625 65.599 55.1031 65.599 52.1865V-23.9333C65.599 -24.1729 65.4792 -24.376 65.4792 -24.6156L9.04169 18.624Z" fill="#A48374"/>
</g>
<defs>
<clipPath id="clip0_4014_1211">
<rect width="14.3374" height="13.65" fill="white" transform="translate(0 0.0250015)"/>
</clipPath>
</defs>
</svg>
