<svg width="26" height="26" viewBox="0 0 26 26" fill="none" xmlns="http://www.w3.org/2000/svg">
<g clip-path="url(#clip0_4010_872)">
<mask id="mask0_4010_872" style="mask-type:luminance" maskUnits="userSpaceOnUse" x="0" y="0" width="27" height="27">
<path d="M26.0203 13.0102C26.0203 13.2228 26.0149 13.436 26.0047 13.6486C25.9939 13.8612 25.9783 14.0732 25.9573 14.2851C25.937 14.497 25.9106 14.7083 25.8795 14.9189C25.8483 15.1294 25.8118 15.3393 25.7705 15.5485C25.7285 15.7571 25.6818 15.9649 25.6303 16.1715C25.5789 16.378 25.522 16.5831 25.4604 16.7869C25.3981 16.9907 25.3317 17.1925 25.2599 17.3929C25.1882 17.5933 25.1117 17.7924 25.0297 17.9888C24.9485 18.1858 24.8625 18.3801 24.7711 18.5724C24.6804 18.7654 24.5842 18.9549 24.484 19.1432C24.3838 19.3307 24.2789 19.5163 24.1692 19.6984C24.0602 19.8812 23.9457 20.0613 23.8279 20.238C23.7094 20.4154 23.5869 20.5894 23.4603 20.7601C23.333 20.9314 23.2023 21.0993 23.0669 21.2638C22.9321 21.4283 22.7927 21.5895 22.6498 21.7472C22.5069 21.905 22.36 22.0594 22.2097 22.2097C22.0594 22.36 21.905 22.5069 21.7472 22.6498C21.5895 22.7927 21.4283 22.9321 21.2638 23.0669C21.0993 23.2023 20.9314 23.333 20.7601 23.4603C20.5894 23.5869 20.4154 23.7094 20.238 23.8279C20.0613 23.9457 19.8812 24.0602 19.6984 24.1692C19.5163 24.2789 19.3307 24.3838 19.1432 24.484C18.9549 24.5842 18.7654 24.6804 18.5724 24.7711C18.3801 24.8625 18.1858 24.9485 17.9888 25.0297C17.7924 25.1117 17.5933 25.1882 17.3929 25.2599C17.1925 25.3317 16.9907 25.3981 16.7869 25.4604C16.5831 25.522 16.378 25.5789 16.1715 25.6303C15.9649 25.6818 15.7571 25.7285 15.5485 25.7705C15.3393 25.8118 15.1294 25.8483 14.9189 25.8795C14.7083 25.9106 14.497 25.937 14.2851 25.9573C14.0732 25.9783 13.8612 25.9939 13.6486 26.0047C13.436 26.0149 13.2228 26.0203 13.0102 26.0203C12.7969 26.0203 12.5843 26.0149 12.3717 26.0047C12.1591 25.9939 11.9471 25.9783 11.7352 25.9573C11.5233 25.937 11.312 25.9106 11.1015 25.8795C10.8902 25.8483 10.681 25.8118 10.4718 25.7705C10.2632 25.7285 10.0554 25.6818 9.84885 25.6303C9.64234 25.5789 9.43719 25.522 9.23339 25.4604C9.02958 25.3981 8.82781 25.3317 8.6274 25.2599C8.42698 25.1882 8.22792 25.1117 8.03156 25.0297C7.83453 24.9485 7.64021 24.8625 7.44792 24.7711C7.25495 24.6804 7.06469 24.5842 6.87714 24.484C6.68958 24.3838 6.50406 24.2789 6.32125 24.1692C6.13911 24.0602 5.95901 23.9457 5.78229 23.8279C5.6049 23.7094 5.43089 23.5869 5.26026 23.4603C5.08896 23.333 4.92104 23.2023 4.75651 23.0669C4.59198 22.9321 4.43083 22.7927 4.27307 22.6498C4.11531 22.5069 3.96094 22.36 3.81063 22.2097C3.66031 22.0594 3.51339 21.905 3.37052 21.7472C3.22698 21.5895 3.08818 21.4283 2.95344 21.2638C2.81802 21.0993 2.68734 20.9314 2.56005 20.7601C2.43344 20.5894 2.31089 20.4154 2.1924 20.238C2.07458 20.0613 1.96016 19.8812 1.85115 19.6984C1.74146 19.5163 1.63651 19.3307 1.5363 19.1432C1.43609 18.9549 1.33995 18.7654 1.24922 18.5724C1.15781 18.3801 1.07182 18.1858 0.990573 17.9888C0.908646 17.7924 0.832135 17.5933 0.760365 17.3929C0.688594 17.1925 0.62224 16.9907 0.559948 16.7869C0.498333 16.5831 0.441458 16.378 0.39 16.1715C0.337865 15.9649 0.291823 15.7571 0.249844 15.5485C0.208542 15.3393 0.171979 15.1294 0.140833 14.9189C0.109687 14.7083 0.0832813 14.497 0.0629687 14.2851C0.0419793 14.0732 0.0264063 13.8612 0.0155729 13.6486C0.00541667 13.436 0 13.2228 0 13.0102C0 12.7969 0.00541667 12.5843 0.0155729 12.3717C0.0264063 12.1591 0.0419793 11.9471 0.0629687 11.7352C0.0832813 11.5233 0.109687 11.312 0.140833 11.1015C0.171979 10.8902 0.208542 10.681 0.249844 10.4718C0.291823 10.2632 0.337865 10.0554 0.39 9.84885C0.441458 9.64234 0.498333 9.43719 0.559948 9.23339C0.62224 9.02958 0.688594 8.82781 0.760365 8.6274C0.832135 8.42698 0.908646 8.22792 0.990573 8.03156C1.07182 7.83453 1.15781 7.64021 1.24922 7.44792C1.33995 7.25495 1.43609 7.06469 1.5363 6.87714C1.63651 6.68958 1.74146 6.50406 1.85115 6.32125C1.96016 6.13911 2.07458 5.95901 2.1924 5.78229C2.31089 5.6049 2.43344 5.43089 2.56005 5.26026C2.68734 5.08896 2.81802 4.92104 2.95344 4.75651C3.08818 4.59198 3.22698 4.43083 3.37052 4.27307C3.51339 4.11531 3.66031 3.96094 3.81063 3.81063C3.96094 3.66031 4.11531 3.51339 4.27307 3.37052C4.43083 3.22698 4.59198 3.08818 4.75651 2.95344C4.92104 2.81802 5.08896 2.68734 5.26026 2.56005C5.43089 2.43344 5.6049 2.31089 5.78229 2.1924C5.95901 2.07458 6.13911 1.96016 6.32125 1.85115C6.50406 1.74146 6.68958 1.63651 6.87714 1.5363C7.06469 1.43609 7.25495 1.33995 7.44792 1.24922C7.64021 1.15781 7.83453 1.07182 8.03156 0.990573C8.22792 0.908646 8.42698 0.832135 8.6274 0.760365C8.82781 0.688594 9.02958 0.62224 9.23339 0.559948C9.43719 0.498333 9.64234 0.441458 9.84885 0.39C10.0554 0.337865 10.2632 0.291823 10.4718 0.249844C10.681 0.208542 10.8902 0.171979 11.1015 0.140833C11.312 0.109687 11.5233 0.0832813 11.7352 0.0629687C11.9471 0.0419793 12.1591 0.0264063 12.3717 0.0155729C12.5843 0.00541667 12.7969 0 13.0102 0C13.2228 0 13.436 0.00541667 13.6486 0.0155729C13.8612 0.0264063 14.0732 0.0419793 14.2851 0.0629687C14.497 0.0832813 14.7083 0.109687 14.9189 0.140833C15.1294 0.171979 15.3393 0.208542 15.5485 0.249844C15.7571 0.291823 15.9649 0.337865 16.1715 0.39C16.378 0.441458 16.5831 0.498333 16.7869 0.559948C16.9907 0.62224 17.1925 0.688594 17.3929 0.760365C17.5933 0.832135 17.7924 0.908646 17.9888 0.990573C18.1858 1.07182 18.3801 1.15781 18.5724 1.24922C18.7654 1.33995 18.9549 1.43609 19.1432 1.5363C19.3307 1.63651 19.5163 1.74146 19.6984 1.85115C19.8812 1.96016 20.0613 2.07458 20.238 2.1924C20.4154 2.31089 20.5894 2.43344 20.7601 2.56005C20.9314 2.68734 21.0993 2.81802 21.2638 2.95344C21.4283 3.08818 21.5895 3.22698 21.7472 3.37052C21.905 3.51339 22.0594 3.66031 22.2097 3.81063C22.36 3.96094 22.5069 4.11531 22.6498 4.27307C22.7927 4.43083 22.9321 4.59198 23.0669 4.75651C23.2023 4.92104 23.333 5.08896 23.4603 5.26026C23.5869 5.43089 23.7094 5.6049 23.8279 5.78229C23.9457 5.95901 24.0602 6.13911 24.1692 6.32125C24.2789 6.50406 24.3838 6.68958 24.484 6.87714C24.5842 7.06469 24.6804 7.25495 24.7711 7.44792C24.8625 7.64021 24.9485 7.83453 25.0297 8.03156C25.1117 8.22792 25.1882 8.42698 25.2599 8.6274C25.3317 8.82781 25.3981 9.02958 25.4604 9.23339C25.522 9.43719 25.5789 9.64234 25.6303 9.84885C25.6818 10.0554 25.7285 10.2632 25.7705 10.4718C25.8118 10.681 25.8483 10.8902 25.8795 11.1015C25.9106 11.312 25.937 11.5233 25.9573 11.7352C25.9783 11.9471 25.9939 12.1591 26.0047 12.3717C26.0149 12.5843 26.0203 12.7969 26.0203 13.0102Z" fill="white"/>
</mask>
<g mask="url(#mask0_4010_872)">
<path d="M28.6 -2.6001H-2.59998V28.5999H28.6V-2.6001Z" fill="#3A2D28"/>
</g>
<path fill-rule="evenodd" clip-rule="evenodd" d="M5.87708 12.8679C9.66672 11.2063 12.1997 10.1325 13.476 9.6057C17.0835 8.10596 17.833 7.84258 18.3198 7.82227C18.4207 7.82227 18.6638 7.84258 18.8263 7.96378C18.9475 8.06534 18.9881 8.20753 19.0084 8.30841C19.0288 8.40997 19.0491 8.63273 19.0288 8.81487C18.8263 10.8617 17.9955 15.8674 17.5493 18.1573C17.3672 19.1302 17.0022 19.4546 16.6576 19.4952C15.9081 19.5554 15.3204 18.988 14.5905 18.5222C13.4557 17.772 12.8077 17.3062 11.6932 16.577C10.4163 15.7259 11.247 15.2593 11.9769 14.5098C12.1591 14.3067 15.5025 11.2876 15.5634 11.0039C15.5634 10.9633 15.5838 10.8414 15.5025 10.7811C15.4219 10.7202 15.3204 10.7405 15.2391 10.7608C15.1179 10.7811 13.2939 11.9965 9.74729 14.3879C9.22052 14.7529 8.75469 14.9147 8.3288 14.9147C7.86297 14.9147 6.97125 14.6513 6.30229 14.4286C5.49182 14.1652 4.84318 14.023 4.90412 13.5775C4.94474 13.3547 5.26906 13.1116 5.87708 12.8679Z" fill="#EBE3DB"/>
</g>
<defs>
<clipPath id="clip0_4010_872">
<rect width="26" height="26" fill="white"/>
</clipPath>
</defs>
</svg>
