<svg width="26" height="26" viewBox="0 0 26 26" fill="none" xmlns="http://www.w3.org/2000/svg">
<g clip-path="url(#clip0_4074_4245)">
<path d="M13.005 0.0334473C5.8393 0.0334473 0.0334473 5.8393 0.0334473 13.005C0.0334473 20.1707 5.8393 25.9766 13.005 25.9766C20.1707 25.9766 25.9766 20.1707 25.9766 13.005C25.9766 5.8393 20.1707 0.0334473 13.005 0.0334473ZM19.3757 8.92003L17.2469 18.9521C17.09 19.6634 16.6664 19.836 16.0753 19.5012L12.8324 17.111L11.2686 18.6174C11.0959 18.7899 10.9494 18.9364 10.6146 18.9364L10.8448 15.6359L16.8546 10.2068C17.1161 9.97655 16.7971 9.84587 16.4519 10.0759L9.02457 14.752L5.82359 13.7529C5.12796 13.5333 5.11225 13.0573 5.96998 12.7225L18.4761 7.90007C19.0566 7.69085 19.5641 8.04131 19.3757 8.92003Z" fill="#3A2D28"/>
</g>
<defs>
<clipPath id="clip0_4074_4245">
<rect width="26" height="26" fill="white"/>
</clipPath>
</defs>
</svg>
