<svg width="26" height="26" viewBox="0 0 26 26" fill="none" xmlns="http://www.w3.org/2000/svg">
<mask id="mask0_4010_2608" style="mask-type:luminance" maskUnits="userSpaceOnUse" x="0" y="0" width="26" height="26">
<path d="M0 0H25.87V26H0V0Z" fill="white"/>
</mask>
<g mask="url(#mask0_4010_2608)">
<path fill-rule="evenodd" clip-rule="evenodd" d="M22.1494 3.78557C19.7126 1.34604 16.4714 0.00135417 13.0176 0C5.90214 0 0.111042 5.79042 0.108333 12.9086C0.106979 15.1836 0.702136 17.4044 1.83151 19.3619L0 26.0521L6.84328 24.2572C8.72896 25.2857 10.8523 25.8273 13.0122 25.828H13.0176C20.1324 25.828 25.9242 20.0369 25.9269 12.9188C25.9282 9.46969 24.5869 6.22646 22.1494 3.78625V3.78557ZM13.0176 23.6478H13.0135C11.0886 23.6471 9.20021 23.1298 7.55219 22.1521L7.16016 21.9199L3.09901 22.9849L4.18302 19.0254L3.92844 18.6191C2.85391 16.9108 2.28651 14.9365 2.28786 12.9093C2.29057 6.99359 7.10328 2.18021 13.0223 2.18021C15.8884 2.18156 18.5819 3.29875 20.6077 5.32729C22.6342 7.35516 23.7487 10.0513 23.7473 12.9174C23.7446 18.8338 18.9319 23.6471 13.0176 23.6471V23.6478ZM18.9035 15.6122C18.5805 15.4504 16.9948 14.6704 16.6989 14.5627C16.403 14.4551 16.1884 14.4016 15.9738 14.7245C15.7591 15.0475 15.1403 15.7747 14.952 15.9893C14.7638 16.2046 14.5763 16.231 14.2533 16.0699C13.931 15.9081 12.8917 15.5675 11.6594 14.4686C10.7006 13.6134 10.0527 12.5572 9.8651 12.2342C9.67688 11.9113 9.84479 11.7366 10.0059 11.5761C10.1508 11.4312 10.3282 11.1996 10.4901 11.0114C10.6519 10.8232 10.7047 10.6884 10.8123 10.4731C10.92 10.2578 10.8665 10.0696 10.7859 9.90844C10.7054 9.74662 10.0608 8.15885 9.7913 7.51359C9.52927 6.88458 9.26318 6.9699 9.06547 6.95906C8.87724 6.95026 8.6626 6.94823 8.44729 6.94823C8.23198 6.94823 7.8826 7.0288 7.58672 7.35177C7.29083 7.67474 6.45802 8.45542 6.45802 10.0425C6.45802 11.6296 7.6138 13.1639 7.77495 13.3798C7.93677 13.5952 10.0499 16.8526 13.2851 18.2501C14.0549 18.5826 14.6555 18.7816 15.1247 18.9299C15.8966 19.1757 16.6001 19.1411 17.1559 19.0579C17.7755 18.9651 19.064 18.2779 19.3328 17.5243C19.6016 16.7707 19.6016 16.1247 19.521 15.9907C19.4404 15.8559 19.2251 15.7747 18.9028 15.6135L18.9035 15.6122Z" fill="#3A2D28"/>
</g>
</svg>
